<?xml version="1.0" encoding="utf-8"?><svg xmlns="http://www.w3.org/2000/svg" xmlns:xlink="http://www.w3.org/1999/xlink"><symbol viewBox="0 0 11 16" id="contacts-address"><path d="M5.501 0C2.463 0 0 2.417 0 5.4c0 1.525 1.515 4.258 1.515 4.258L5.298 16l3.948-6.268S11 7.124 11 5.399C11 2.417 8.538 0 5.501 0zm-.026 8.373c-1.74 0-3.149-1.392-3.149-3.113 0-1.719 1.409-3.11 3.15-3.11 1.738 0 3.15 1.391 3.15 3.11 0 1.72-1.412 3.113-3.15 3.113z"/></symbol><symbol viewBox="0 0 13 13" id="contacts-email"><path d="M1.863 11.177a6.322 6.322 0 0 0 2.128 1.341A7.68 7.68 0 0 0 6.733 13c1.112 0 2.138-.168 3.06-.513.836-.304.116-1.844-.498-1.592-.677.282-1.503.429-2.446.429a5.781 5.781 0 0 1-2.011-.335 4.386 4.386 0 0 1-1.535-.943 4.29 4.29 0 0 1-.995-1.487c-.244-.587-.36-1.257-.36-1.99 0-.692.116-1.352.35-1.939.232-.586.55-1.11.973-1.53a4.425 4.425 0 0 1 1.503-1.015 5.092 5.092 0 0 1 1.959-.367c.667 0 1.28.094 1.831.262a3.78 3.78 0 0 1 1.398.775c.392.346.699.765.92 1.268.223.503.33 1.09.33 1.76a4.6 4.6 0 0 1-.128 1.1c-.085.324-.19.618-.339.848-.137.22-.296.398-.487.524-.222.146-.55.23-.804.146-.318-.104-.254-.544-.233-.806.032-.356.127-.691.2-1.037.117-.566.244-1.121.36-1.676.064-.304.138-.618.202-.922a.634.634 0 0 0-.625-.765h-.465a.635.635 0 0 0-.615.461c-.031.126-.063.23-.063.23-.233-.712-1.09-.91-1.768-.9-.89.01-1.704.46-2.297 1.1-.053.062-.117.125-.17.188a4.03 4.03 0 0 0-.698 1.247c-.17.482-.254.974-.254 1.477 0 .43.063.838.18 1.204.127.378.306.702.54.975.232.272.529.492.878.65.35.156.741.24 1.165.24.317 0 .614-.052.878-.146a3.28 3.28 0 0 0 .688-.346c.16-.105.307-.23.424-.346.074.136.159.251.275.367.297.314.752.471 1.355.471a3.44 3.44 0 0 0 1.377-.283 3.258 3.258 0 0 0 1.153-.859c.318-.377.583-.838.773-1.382.19-.545.286-1.174.286-1.865 0-.943-.18-1.78-.53-2.483a5.199 5.199 0 0 0-1.418-1.77C10.47.954 9.792.608 9.041.367A7.132 7.132 0 0 0 6.733 0c-.921 0-1.8.168-2.615.492A6.844 6.844 0 0 0 1.98 1.865 6.356 6.356 0 0 0 .53 3.928 6.359 6.359 0 0 0 0 6.516c0 .932.159 1.812.487 2.598a5.908 5.908 0 0 0 1.376 2.063zm5.727-4.4c-.074.283-.18.556-.328.807a1.9 1.9 0 0 1-.56.597c-.213.147-.467.22-.784.22a.886.886 0 0 1-.477-.115.908.908 0 0 1-.307-.325 1.518 1.518 0 0 1-.169-.46 2.563 2.563 0 0 1-.053-.462c0-.293.042-.586.127-.89a2.74 2.74 0 0 1 .36-.796c.159-.23.339-.42.561-.566a1.18 1.18 0 0 1 .688-.199c.212 0 .381.032.508.105a.883.883 0 0 1 .307.283c.085.126.138.272.18.43.043.177.064.366.064.544-.01.262-.042.534-.117.828z"/></symbol><symbol viewBox="0 0 11 12" id="contacts-tel"><path d="M4.265 6.048c.298.364.567.63.564.629A8.752 8.752 0 0 0 6.27 8.1c.366.288.94.325 1.253.127.312-.198.912-.6 1.36-.498.378.086.878.375 1.48 1.116 1.42 1.748.148 2.294-.733 2.999-.883.704-3.794-1.04-6.46-3.884C.5 5.117-.504 2.176.234 1.31.974.444 1.59-.84 3.158.765c.666.68.905 1.221.96 1.62.065.474-.363 1.068-.575 1.378-.212.31-.218.91.03 1.313.219.355.453.679.692.972z"/></symbol><symbol viewBox="0 0 26 33" id="docs-pdf"><path d="M25.682 6.934L18.96.313A1.101 1.101 0 0 0 18.19 0H1.423C.738 0 0 .521 0 1.665v30.197c0 .476.486.94 1.062 1.087.029.007.057.018.087.024.09.017.182.027.274.027h23.154c.092 0 .184-.01.274-.027.03-.006.058-.017.087-.024.576-.146 1.062-.61 1.062-1.087V7.953c0-.436-.053-.758-.318-1.019zm-1.742-.106h-4.873v-4.8l4.873 4.8zM1.423 31.862c-.041 0-.078-.015-.114-.028a.26.26 0 0 1-.153-.235v-8.271h23.688v8.27a.261.261 0 0 1-.153.236c-.036.013-.073.028-.114.028H1.423zm-.267-9.672V1.665c0-.124.019-.527.267-.527h16.522a.867.867 0 0 0-.034.222v6.606h6.707a.899.899 0 0 0 .226-.033V22.19H1.156z"/><path d="M8.98 25.458a1.995 1.995 0 0 0-.652-.35 2.385 2.385 0 0 0-.734-.117H5.919v5.733h.949v-2.07h.703c.305 0 .584-.043.837-.131.252-.088.469-.213.648-.373.179-.16.318-.36.419-.596.1-.236.15-.499.15-.79 0-.274-.06-.522-.178-.742a1.834 1.834 0 0 0-.467-.564zm-.36 1.894a.936.936 0 0 1-.228.37.868.868 0 0 1-.312.19 1.059 1.059 0 0 1-.344.058h-.869V25.7h.71c.243 0 .437.038.585.113a.924.924 0 0 1 .506.63 1.726 1.726 0 0 1-.047.91zm6.087-1.521a2.677 2.677 0 0 0-.925-.61c-.371-.153-.802-.23-1.291-.23h-1.754v5.733h2.204c.073 0 .187-.009.34-.027.152-.018.32-.06.505-.125.184-.065.375-.162.573-.292.197-.13.375-.307.533-.533.158-.226.288-.506.391-.84.103-.335.155-.738.155-1.21a2.84 2.84 0 0 0-.182-1 2.519 2.519 0 0 0-.55-.866zm-.691 3.602c-.285.404-.748.606-1.39.606h-.94V25.7h.552c.453 0 .822.058 1.106.175.285.116.51.27.676.459.165.19.277.4.335.634.058.233.087.47.087.707 0 .768-.142 1.355-.426 1.759zm2.796 1.291h.964v-2.582h2.433v-.638h-2.433v-1.805h2.677v-.708h-3.641v5.733zm1.635-17.66c-.53 0-1.182.068-1.94.204-1.057-1.105-2.16-2.719-2.94-4.303.773-3.202.386-3.656.216-3.87-.181-.227-.437-.597-.728-.597a2.89 2.89 0 0 0-.588.098c-.332.11-.511.362-.655.691-.408.941.152 2.544.729 3.78-.493 1.93-1.32 4.241-2.189 6.117-2.19.987-3.353 1.957-3.458 2.883-.038.337.043.831.644 1.276a.937.937 0 0 0 .56.185c.505 0 1.015-.381 1.606-1.199.431-.596.894-1.41 1.377-2.418a27.99 27.99 0 0 1 5.101-1.606c.913.863 1.73 1.3 2.433 1.3.518 0 .961-.234 1.283-.678.334-.461.41-.874.225-1.229-.223-.426-.77-.634-1.676-.634zM8.11 18.568c-.27-.205-.255-.342-.25-.394.037-.316.54-.878 1.775-1.561-.936 1.702-1.44 1.928-1.525 1.955zm4.738-13.042c.024-.008.603.626.055 1.83-.824-.83-.112-1.811-.055-1.83zm-1.195 9.118a40.138 40.138 0 0 0 1.545-4.304 19.476 19.476 0 0 0 2.209 3.155 29.102 29.102 0 0 0-3.754 1.15zm7.454-.273c-.178.246-.564.252-.699.252-.308 0-.423-.18-.894-.538a8.433 8.433 0 0 1 1.047-.061c.513 0 .608.074.679.112a.88.88 0 0 1-.133.236z"/></symbol><symbol viewBox="0 0 139.4 44.7" id="dorohovdesign"><path d="M52.2 19.5V8.1H57c3.6 0 6.1 2.1 6.1 5.7 0 3.5-2.6 5.7-6.1 5.7h-4.8zm7.9-5.7c0-1.8-1.1-3.1-3.1-3.1h-1.9v6.2H57c2 0 3.1-1.4 3.1-3.1m4.1 0c0-3.4 2.6-5.9 6.1-5.9 3.5 0 6.1 2.4 6.1 5.9 0 3.5-2.6 5.9-6.1 5.9-3.5 0-6.1-2.4-6.1-5.9m9.2 0c0-1.9-1.2-3.3-3.1-3.3-1.9 0-3.1 1.4-3.1 3.3 0 1.8 1.2 3.3 3.1 3.3 1.9 0 3.1-1.4 3.1-3.3m11 5.7l-1.9-3.8H81v3.8h-2.9V8.1h5.7c2.5 0 3.9 1.7 3.9 3.8 0 2-1.2 3-2.3 3.4l2.3 4.2h-3.3zm.3-7.6c0-.8-.6-1.2-1.4-1.2H81v2.4h2.3c.8 0 1.4-.4 1.4-1.2m4.2 1.9c0-3.4 2.6-5.9 6.1-5.9 3.5 0 6.1 2.4 6.1 5.9 0 3.5-2.6 5.9-6.1 5.9-3.5 0-6.1-2.4-6.1-5.9m9.1 0c0-1.9-1.2-3.3-3.1-3.3-1.9 0-3.1 1.4-3.1 3.3 0 1.8 1.2 3.3 3.1 3.3 1.9 0 3.1-1.4 3.1-3.3m12.4 5.7v-4.6h-4.7v4.6h-3V8.1h3v4.3h4.7V8.1h2.9v11.4zm4.6-5.7c0-3.4 2.6-5.9 6.1-5.9 3.5 0 6.1 2.4 6.1 5.9 0 3.5-2.6 5.9-6.1 5.9-3.5 0-6.1-2.4-6.1-5.9m9.2 0c0-1.9-1.2-3.3-3.1-3.3-1.9 0-3.1 1.4-3.1 3.3 0 1.8 1.2 3.3 3.1 3.3 1.9 0 3.1-1.4 3.1-3.3m7.3 5.7l-4.3-11.4h3.3l2.8 8.2 2.8-8.2h3.3l-4.2 11.4zm-79.3 17V25.1H57c3.6 0 6.1 2.1 6.1 5.7 0 3.5-2.6 5.7-6.1 5.7h-4.8zm7.9-5.7c0-1.8-1.1-3.1-3.1-3.1h-1.9v6.2H57c2 0 3.1-1.4 3.1-3.1m4.7 5.7V25.1h8.3v2.6h-5.3v1.8H73V32h-5.2v1.9h5.3v2.6zm9.6-1.6l1.5-2.2c.8.8 2.1 1.5 3.6 1.5 1 0 1.6-.4 1.6-.9 0-1.5-6.4-.3-6.4-4.7 0-1.9 1.6-3.6 4.5-3.6 1.8 0 3.4.5 4.6 1.6l-1.6 2.1c-1-.8-2.2-1.2-3.3-1.2-.8 0-1.2.3-1.2.8 0 1.4 6.4.4 6.4 4.6 0 2.3-1.7 3.8-4.7 3.8-2.2 0-3.8-.7-5-1.8m11.5-9.8h2.9v11.3h-2.9zm4.7 5.7c0-3.6 2.8-5.9 6.1-5.9 2.5 0 4.1 1.3 4.8 2.8L99.1 29c-.4-.7-1.3-1.4-2.4-1.4-1.9 0-3.2 1.4-3.2 3.3s1.3 3.3 3.2 3.3c.8 0 1.7-.3 2.1-.7v-.9h-2.6V30h5.5v4.5c-1.2 1.3-2.9 2.2-5 2.2-3.4 0-6.1-2.3-6.1-5.9m20.9 5.7l-4.8-6.6v6.6h-2.9V25.1h3l4.6 6.3v-6.3h2.9v11.4zM17.7 0H0v44.7h17.8c15 0 24.6-8.8 24.6-22.4C42.4 8.7 32.7 0 17.7 0m-.4 35.7h-8V9.5h8c9.3 0 15.7 3.7 15.7 12.7.1 7.5-5.8 13.5-15.7 13.5"/><path d="M19.1 17H17v10.6h2c4 0 6.4-2.4 6.4-5.4 0-3.7-2.6-5.2-6.3-5.2"/></symbol><symbol viewBox="0 0 96.124 96.123" id="fb"><path d="M72.089.02L59.624 0C45.62 0 36.57 9.285 36.57 23.656v10.907H24.037a1.96 1.96 0 0 0-1.96 1.961v15.803a1.96 1.96 0 0 0 1.96 1.96H36.57v39.876a1.96 1.96 0 0 0 1.96 1.96h16.352a1.96 1.96 0 0 0 1.96-1.96V54.287h14.654a1.96 1.96 0 0 0 1.96-1.96l.006-15.803a1.963 1.963 0 0 0-1.961-1.961H56.842v-9.246c0-4.444 1.059-6.7 6.848-6.7l8.397-.003a1.96 1.96 0 0 0 1.959-1.96V1.98A1.96 1.96 0 0 0 72.089.02z"/></symbol><symbol viewBox="0 0 69 69" id="icon-coin"><path d="M10.95 55.846c.753 0 1.364-.604 1.364-1.348 0-.744-.61-1.348-1.364-1.348-.754 0-1.365.604-1.365 1.348 0 .744.611 1.348 1.365 1.348z"/><path d="M68.549 45.17c-1.18-2.639-4.313-3.838-6.984-2.673l-.02.01-8.8 4.008a1.34 1.34 0 0 0-.668 1.789c.315.676 1.125.97 1.81.66l8.789-4.005c1.293-.558 2.806.023 3.377 1.3.277.62.293 1.309.045 1.94a2.533 2.533 0 0 1-1.357 1.404l-18.01 7.855a10.539 10.539 0 0 1-8.872-.199l-6.593-3.235a13.291 13.291 0 0 0-11.188-.25l-.114.05-4.913-10.993 6.824-2.976a13.746 13.746 0 0 1 10.226-.323l13.258 4.81c1.2.435 1.84 1.762 1.426 2.957-.422 1.219-1.77 1.874-3.004 1.462l-10.252-3.426a1.368 1.368 0 0 0-1.73.845c-.241.705.142 1.47.855 1.708l10.252 3.426c.54.18 1.088.265 1.628.265 2.121 0 4.11-1.32 4.833-3.407.89-2.57-.486-5.424-3.068-6.36l-13.257-4.81a16.494 16.494 0 0 0-12.269.387l-6.87 2.997a3.394 3.394 0 0 0-1.622-1.295 3.445 3.445 0 0 0-2.625.06L.88 42.977a1.347 1.347 0 0 0-.813 1.229L0 67.649c-.001.468.244.904.648 1.15a1.376 1.376 0 0 0 1.332.056l17.168-8.567a3.382 3.382 0 0 0 1.776-1.86c.27-.687.306-1.426.11-2.125l.146-.064a10.539 10.539 0 0 1 8.872.199l6.593 3.235a13.292 13.292 0 0 0 11.188.25l18.01-7.854c2.672-1.165 3.885-4.26 2.706-6.899zM18.38 57.455a.692.692 0 0 1-.37.383l-15.275 7.62.016-5.793 3.952-1.917a1.34 1.34 0 0 0 .623-1.804 1.372 1.372 0 0 0-1.826-.616l-2.74 1.33.033-11.568 7.965-3.474a.706.706 0 0 1 .925.354l6.685 14.955a.68.68 0 0 1 .012.53z"/><path fill-rule="evenodd" clip-rule="evenodd" d="M48.023 22v-.34h3.528c1.976 0 3.512-.465 4.605-1.394 1.102-.93 1.653-2.23 1.653-3.903 0-1.633-.563-2.945-1.688-3.937-1.117-.992-2.629-1.489-4.535-1.489h-5.527a1 1 0 0 0-1 1v7.344c-.585 0-1.059.474-1.059 1.059v.262c0 .584.474 1.058 1.059 1.058V22H45a1 1 0 0 0 0 2h.059v2.518a1.482 1.482 0 0 0 2.964 0V24H50a1 1 0 0 0 0-2h-1.977zm3.563-2.719h-3.563v-5.953h3.645c.984.016 1.758.3 2.32.856.563.546.844 1.28.844 2.203 0 .937-.277 1.656-.832 2.156-.555.492-1.36.738-2.414.738z"/><path d="M49.58 0C39.364 0 31.052 8.21 31.052 18.303c0 10.092 8.312 18.303 18.528 18.303 10.217 0 18.53-8.21 18.53-18.303C68.11 8.211 59.796 0 49.58 0zm0 33.91c-8.712 0-15.8-7.001-15.8-15.607 0-8.606 7.088-15.608 15.8-15.608 8.713 0 15.8 7.002 15.8 15.608 0 8.606-7.087 15.607-15.8 15.607z"/></symbol><symbol viewBox="0 0 53 53" id="icon-download"><path d="M42.01 0H11.416v8.658h1.579V1.574h28.36l10.066 10.034v39.818H12.995v-3.831h-1.58V53H53V10.956L42.01 0z"/><path d="M42.472 10.495V4.46h-1.579v7.61h7.633v-1.575h-6.054zm-24.837 21.62V13.8h-1.579v19.888h2.351l-7.582 9.003-7.47-9.003h2.229V13.801h-1.58v18.314H0L10.816 45.15l10.98-13.036h-4.16zM5.584 10.757h-1.58v1.575h1.58v-1.575zm12.052 0h-1.58v1.575h1.58v-1.575zm28.258 18.839H25.576v1.574h20.318v-1.574zm0 4.723H25.576v1.574h20.318V34.32zM32.63 39.041h-7.054v1.575h7.053V39.04zm3.158 0h-1.58v1.575h1.58V39.04zm6.317 0h-1.58v1.575h1.58V39.04zm-3.159 0h-1.58v1.575h1.58V39.04zm6.948-14.168H20.627v1.574h25.267v-1.574zm0-4.723H20.627v1.575h25.267V20.15zm0-4.722H20.627v1.574h25.267v-1.574z"/><path d="M11.416 18.734h-1.58v1.574h1.58v-1.574zm0-3.149h-1.58v1.574h1.58v-1.574zm0 6.297h-1.58v1.574h1.58v-1.574zm0 9.446h-1.58v1.574h1.58v-1.574zm0-3.148h-1.58v1.573h1.58V28.18zm0-3.15h-1.58v1.575h1.58V25.03z"/></symbol><symbol viewBox="0 0 69 69" id="icon-quality"><path d="M52.872 30.466a3.966 3.966 0 0 0-3.961-3.96h-7.28c1.768-1.989 2.924-4.253 3.148-6.284a4.369 4.369 0 0 0-1.052-3.378 3.797 3.797 0 0 0-2.833-1.301h-.038a3.94 3.94 0 0 0-2.793 1.147 3.912 3.912 0 0 0-1.167 2.78c-.038.231-.444 1.026-1.436 1.97-.813.773-2.217 1.836-4.29 2.509-.812.264-1.554.75-2.206 1.444-.343.364-.855.867-1.49 1.372a2.218 2.218 0 0 0-1.04-.26h-6.915a2.235 2.235 0 0 0-2.233 2.233v18.439a2.235 2.235 0 0 0 2.233 2.232h6.914c.84 0 1.571-.466 1.953-1.152H46.03a3.389 3.389 0 0 0 3.385-3.385 3.37 3.37 0 0 0-.47-1.72 3.386 3.386 0 0 0 1.152-4.61 3.386 3.386 0 0 0 1.034-4.796 3.961 3.961 0 0 0 1.741-3.28zm-3.961 1.801h-.576a1.08 1.08 0 0 0 0 2.16 1.226 1.226 0 0 1 0 2.449h-1.153a1.08 1.08 0 0 0 0 2.162c.675 0 1.225.549 1.225 1.224 0 .675-.55 1.225-1.225 1.225H46.03a1.08 1.08 0 1 0 0 2.16 1.226 1.226 0 0 1 0 2.449H28.666V35.653a1.08 1.08 0 0 0-2.16 0v11.524c0 .04-.033.072-.073.072H19.52a.072.072 0 0 1-.072-.072v-18.44c0-.039.032-.071.072-.071h6.914c.04 0 .072.032.072.072v2.305a1.08 1.08 0 0 0 2.161 0v-2.305c0-.053-.004-.104-.008-.155a16.409 16.409 0 0 0 1.88-1.711c.4-.426.838-.718 1.3-.868 2.543-.826 4.254-2.155 5.242-3.125 1.238-1.215 1.977-2.482 1.977-3.39 0-.479.187-.928.526-1.264.344-.34.8-.52 1.29-.521a1.646 1.646 0 0 1 1.238.574c.394.444.588 1.083.52 1.708-.237 2.147-1.953 4.8-4.374 6.76a1.08 1.08 0 0 0 .68 1.92h9.974c.992 0 1.8.807 1.8 1.8s-.807 1.801-1.8 1.801z"/><path d="M22.976 42.627a1.09 1.09 0 0 0-1.086 1.086c0 .597.49 1.086 1.086 1.086a1.09 1.09 0 0 0 1.086-1.086 1.09 1.09 0 0 0-1.086-1.086z"/><path d="M67.074 34.5l1.856-4.911a1.08 1.08 0 0 0-.167-1.058l-3.283-4.097.247-5.245a1.08 1.08 0 0 0-.486-.954l-4.388-2.882-1.385-5.064a1.08 1.08 0 0 0-.757-.757l-5.064-1.385-2.883-4.388a1.082 1.082 0 0 0-.954-.486l-5.244.247L40.469.237A1.08 1.08 0 0 0 39.41.07L34.5 1.926 29.589.07a1.08 1.08 0 0 0-1.058.167L24.434 3.52l-5.244-.247a1.078 1.078 0 0 0-.954.486l-2.883 4.388-5.064 1.385a1.08 1.08 0 0 0-.757.757l-1.385 5.064-4.388 2.883a1.08 1.08 0 0 0-.486.953l.247 5.245L.237 28.53a1.08 1.08 0 0 0-.167 1.06l1.856 4.91L.07 39.411a1.08 1.08 0 0 0 .167 1.058l3.283 4.097-.247 5.244a1.08 1.08 0 0 0 .486.954l4.388 2.883 1.385 5.064c.1.369.389.656.757.757l5.064 1.385 2.883 4.388c.21.32.573.503.953.486l5.245-.247 4.097 3.283c.298.239.7.302 1.058.167l4.911-1.856 4.911 1.856a1.082 1.082 0 0 0 1.058-.167l4.097-3.283 5.244.247c.383.017.745-.166.954-.486l2.883-4.388 5.064-1.385c.369-.1.656-.389.757-.757l1.385-5.064 4.388-2.883c.32-.21.504-.572.486-.954l-.247-5.244 3.283-4.097c.238-.299.302-.7.167-1.058L67.074 34.5zm-2.165.382l1.782 4.717-3.153 3.935a1.08 1.08 0 0 0-.236.726l.238 5.037-4.214 2.768a1.08 1.08 0 0 0-.45.618l-1.33 4.863-4.863 1.33c-.254.07-.474.23-.618.45l-2.768 4.214-5.037-.238a1.082 1.082 0 0 0-.726.236l-3.935 3.153-4.717-1.782a1.08 1.08 0 0 0-.764 0l-4.717 1.782-3.935-3.153a1.082 1.082 0 0 0-.726-.236l-5.037.238-2.768-4.214a1.08 1.08 0 0 0-.618-.45l-4.863-1.33-1.33-4.863a1.081 1.081 0 0 0-.45-.618L5.46 49.297l.238-5.037a1.08 1.08 0 0 0-.236-.726l-3.153-3.935 1.783-4.717a1.08 1.08 0 0 0 0-.764l-1.783-4.717 3.153-3.935a1.08 1.08 0 0 0 .236-.726l-.238-5.037 4.214-2.768c.22-.144.38-.364.45-.618l1.33-4.864 4.863-1.33a1.08 1.08 0 0 0 .618-.449l2.768-4.214 5.037.238c.263.012.521-.072.726-.236l3.935-3.153 4.717 1.782c.246.093.518.093.764 0l4.717-1.782 3.935 3.153c.205.164.463.248.726.236l5.037-.238 2.768 4.214c.144.22.364.38.618.45l4.863 1.33 1.33 4.863c.07.254.23.474.45.618l4.214 2.768-.238 5.037a1.08 1.08 0 0 0 .236.726l3.153 3.935-1.782 4.717a1.081 1.081 0 0 0 0 .764z"/><path d="M54.8 15.845a28.208 28.208 0 0 0-1.694-1.694 1.08 1.08 0 1 0-1.461 1.591 26.213 26.213 0 0 1 1.563 1.564 1.078 1.078 0 0 0 1.527.065 1.08 1.08 0 0 0 .065-1.526zm-5.53-4.643c-5.21-3.319-11.484-4.794-17.663-4.154a27.646 27.646 0 0 0-16.648 7.932 27.504 27.504 0 0 0-8.057 18.383 27.495 27.495 0 0 0 6.435 18.86 1.078 1.078 0 0 0 1.522.132 1.08 1.08 0 0 0 .131-1.522A25.34 25.34 0 0 1 9.061 33.45a25.347 25.347 0 0 1 7.426-16.942 25.478 25.478 0 0 1 15.342-7.311c5.698-.59 11.479.77 16.279 3.828a1.08 1.08 0 1 0 1.161-1.823zm8.478 8.479a1.08 1.08 0 1 0-1.822 1.161c3.059 4.801 4.418 10.582 3.828 16.279a25.479 25.479 0 0 1-7.31 15.343A25.349 25.349 0 0 1 35.5 59.889a25.336 25.336 0 0 1-17.383-5.928 1.08 1.08 0 1 0-1.39 1.653 27.479 27.479 0 0 0 18.86 6.434 27.503 27.503 0 0 0 18.384-8.056 27.644 27.644 0 0 0 7.931-16.648c.64-6.18-.835-12.453-4.155-17.663z"/></symbol><symbol viewBox="0 0 28 50" id="icon-scroll"><path d="M14.372 50h-.745C6.107 50 0 43.935 0 36.465v-22.93C0 6.065 6.106 0 13.627 0h.745c7.521 0 13.627 6.065 13.627 13.536v22.929C28.074 43.934 21.893 50 14.372 50zm-.67-48.52C7 1.48 1.564 6.878 1.564 13.535v22.929C1.564 43.12 7 48.52 13.702 48.52h.745c6.701 0 12.137-5.4 12.137-12.056v-22.93c0-6.656-5.436-12.056-12.137-12.056h-.745z"/><path d="M14.074 21.137c-.915 0-1.754-.97-1.754-2.134v-6.302c0-1.163.762-2.133 1.677-2.133s1.678.97 1.678 2.133v6.302c.076 1.164-.687 2.134-1.601 2.134z"/></symbol><symbol viewBox="0 0 16 17" id="icon-search"><path d="M15.757 15.484l-3.944-4.208a6.949 6.949 0 0 0 1.57-4.412C13.382 3.079 10.38 0 6.69 0 3.001 0 0 3.08 0 6.864s3.002 6.863 6.691 6.863a6.505 6.505 0 0 0 3.834-1.242l3.974 4.24a.856.856 0 0 0 1.234.025.913.913 0 0 0 .024-1.266zM6.69 1.791c2.727 0 4.946 2.275 4.946 5.073 0 2.797-2.219 5.073-4.946 5.073S1.746 9.66 1.746 6.864c0-2.798 2.218-5.073 4.945-5.073z"/></symbol><symbol viewBox="0 0 72 69" id="icon-star"><path d="M70.437 31.27a5.134 5.134 0 0 0 1.307-5.293 5.133 5.133 0 0 0-4.17-3.516l-17.433-2.534a2.277 2.277 0 0 1-1.716-1.247L40.63 2.878A5.132 5.132 0 0 0 36 0a5.131 5.131 0 0 0-4.63 2.878L23.576 18.68a2.28 2.28 0 0 1-1.717 1.247L4.424 22.462a5.129 5.129 0 0 0-4.168 3.515 5.134 5.134 0 0 0 1.307 5.294l12.613 12.298c.538.525.785 1.28.658 2.02l-2.977 17.366a5.133 5.133 0 0 0 2.053 5.05 5.12 5.12 0 0 0 5.438.394l15.59-8.2a2.282 2.282 0 0 1 2.123 0l15.593 8.2a5.15 5.15 0 0 0 2.406.599 5.144 5.144 0 0 0 3.032-.992 5.133 5.133 0 0 0 2.053-5.05l-2.979-17.367a2.28 2.28 0 0 1 .658-2.018l12.613-12.3zM54.326 46.078l2.977 17.366a2.24 2.24 0 0 1-.907 2.23 2.243 2.243 0 0 1-2.4.175l-15.593-8.201a5.172 5.172 0 0 0-4.807.001l-15.589 8.2a2.247 2.247 0 0 1-2.402-.174 2.241 2.241 0 0 1-.907-2.231l2.977-17.366a5.166 5.166 0 0 0-1.485-4.572l-12.615-12.3A2.236 2.236 0 0 1 3 26.869a2.237 2.237 0 0 1 1.84-1.553l17.43-2.536a5.157 5.157 0 0 0 3.889-2.825l7.795-15.801A2.236 2.236 0 0 1 36 2.885c.888 0 1.652.474 2.045 1.27l7.796 15.801a5.154 5.154 0 0 0 3.887 2.825l17.433 2.534A2.237 2.237 0 0 1 69 26.868c.274.844.06 1.718-.577 2.338L55.81 41.504a5.164 5.164 0 0 0-1.483 4.573z"/><path d="M32.066 37.749a1 1 0 0 1-.754-1.078l.736-6.84a1 1 0 0 1 .995-.893h7.035a1.23 1.23 0 1 1 0 2.46h-5.566l-.469 4.079c.789-.454 1.68-.68 2.672-.68 1.625 0 2.887.52 3.785 1.558.906 1.04 1.36 2.438 1.36 4.196 0 1.734-.5 3.117-1.5 4.148-1 1.024-2.372 1.535-4.114 1.535-1.562 0-2.86-.441-3.89-1.324a4.683 4.683 0 0 1-1.51-2.467c-.137-.56.33-1.048.906-1.048h.817c.501 0 .906.38 1.079.85.156.428.385.781.688 1.06.484.437 1.117.656 1.898.656.875 0 1.555-.313 2.04-.938.492-.625.738-1.476.738-2.554 0-1.04-.27-1.86-.809-2.461-.539-.61-1.281-.914-2.226-.914-.516 0-.954.07-1.313.21a2.93 2.93 0 0 0-.758.442c-.27.208-.613.306-.944.224l-.896-.221z"/><path fill-rule="evenodd" clip-rule="evenodd" d="M36.5 52C44.508 52 51 45.508 51 37.5S44.508 23 36.5 23 22 29.492 22 37.5 28.492 52 36.5 52zm0 3C46.165 55 54 47.165 54 37.5S46.165 20 36.5 20 19 27.835 19 37.5 26.835 55 36.5 55z"/></symbol><symbol viewBox="0 0 71 69" id="icon-support"><path d="M55.946 51.184c.568-4.663.85-9.356.846-14.054a8.83 8.83 0 0 0 2.89-2.556c2.163-3.039 2.337-7.375.537-12.904a1.339 1.339 0 0 0-.538-.696l-.9-.602c.145-5-1.58-9.874-4.838-13.68C49.913 2.25 43.744 0 35.561 0c-8.184 0-14.365 2.302-18.383 6.693a20.135 20.135 0 0 0-4.837 13.68l-.9.601c-.253.166-.443.41-.538.696-3.118 9.57.363 13.693 3.332 15.433-.083 4.72.173 9.439.766 14.122C7.691 54.075-.224 59.149.005 67.662.005 68.4.607 69 1.349 69h68.303c.742 0 1.344-.6 1.344-1.338.215-8.554-7.78-13.64-15.05-16.478zM14.279 33.773c-2.676-2.678-2.165-7.155-1.011-10.885l1.142-.763c.413-.274.64-.752.591-1.244A17.851 17.851 0 0 1 19.14 8.419c3.48-3.801 8.99-5.769 16.354-5.796 7.363-.026 12.873 1.995 16.367 5.836a17.851 17.851 0 0 1 4.138 12.462c-.048.492.179.97.592 1.245l1.155.763c1.344 4.457 1.277 7.843-.309 10.079a5.874 5.874 0 0 1-.739.843c-.47-10.16-2.862-17.775-7.189-22.688a18.18 18.18 0 0 0-7.108-4.98h-.121a22.276 22.276 0 0 0-7.714-1.431 16.316 16.316 0 0 0-12.913 5.514c-5.123 5.771-6.913 15.167-7.374 23.507zM45.612 46.11l.014-.053a15.154 15.154 0 0 0 2.176-3.574 15.35 15.35 0 0 0 .807-2.436l3.56-1.499c.659-.06 1.31-.177 1.95-.348a116.074 116.074 0 0 1-.78 12.047 62.03 62.03 0 0 0-7.687-2.022v-1.9a1.248 1.248 0 0 0-.04-.215zm-5.805-3.828c0 .828-.674 1.5-1.505 1.5a1.502 1.502 0 0 1-1.505-1.5c0-.828.674-1.499 1.505-1.499a1.501 1.501 0 0 1 1.478 1.553l.027-.054zm-1.518-4.122l.013-.054a4.184 4.184 0 0 0-4.22 4.148 4.184 4.184 0 0 0 4.164 4.204 4.186 4.186 0 0 0 4.208-3.855l2.89-1.218c-2.366 5.528-8.144 7.643-9.824 8.152-7.363-4.016-11.18-8.031-11.032-11.94.242-6.237 10.267-10.708 11.409-11.243a15.506 15.506 0 0 0 6.127-4.417c3.454 6.277 4.838 11.685 4.18 16.17l-4.435 1.86a4.198 4.198 0 0 0-3.48-1.807zm-21.38-2.222l.054-.04c.255-8.38 1.747-18.258 6.719-23.933a13.463 13.463 0 0 1 10.857-4.604c1.983.015 3.953.322 5.846.91a10.67 10.67 0 0 0 .484 3.708c.577 2.222 1.169 4.51 0 6.692v.094a1.36 1.36 0 0 0-.068.134c0 .12-1.02 2.878-5.952 5.006-2.124.91-12.726 5.876-13.021 13.586-.108 2.784 1.142 5.5 3.708 8.151-.107.188-.167.4-.174.616v1.887a61.92 61.92 0 0 0-7.821 2.061 101.52 101.52 0 0 1-.645-13.465c.087-.26.091-.54.013-.803zm34.952-.094a1.362 1.362 0 0 0-.484.107l-2.285.964c.215-5.033-1.612-10.949-5.536-17.628a12.002 12.002 0 0 0 0-8.031 23.624 23.624 0 0 1-.43-1.86 15.589 15.589 0 0 1 4.408 3.48c4.125 4.698 6.342 12.233 6.598 22.486a8.668 8.668 0 0 1-2.271.482zM34.15 66.283H2.733c1.061-10.052 17.469-14.255 22.602-15.34v2.343c0 3.038 3.709 5.354 8.815 5.742v7.255zm-6.128-12.984v-5.354a44.221 44.221 0 0 0 6.72 4.243c.193.105.41.16.63.161h.296a20.402 20.402 0 0 0 7.31-3.64v4.617c0 1.272-2.916 3.105-7.471 3.105s-7.485-1.9-7.485-3.132zm8.815 12.984V59.04c5.107-.347 8.815-2.676 8.815-5.742v-2.342c5.174 1.07 21.5 5.26 22.602 15.34l-31.417-.014z"/></symbol><symbol viewBox="0 0 97.395 97.395" id="inst"><path d="M12.501 0h72.393c6.875 0 12.5 5.09 12.5 12.5v72.395c0 7.41-5.625 12.5-12.5 12.5H12.501C5.624 97.395 0 92.305 0 84.895V12.5C0 5.09 5.624 0 12.501 0zm58.447 10.821a4.395 4.395 0 0 0-4.383 4.385v10.495a4.396 4.396 0 0 0 4.383 4.385h11.008a4.398 4.398 0 0 0 4.385-4.385V15.206a4.397 4.397 0 0 0-4.385-4.385H70.948zm15.439 30.367h-8.572a28.486 28.486 0 0 1 1.25 8.355c0 16.2-13.556 29.332-30.275 29.332-16.718 0-30.272-13.132-30.272-29.332 0-2.904.438-5.708 1.25-8.355h-8.945v41.141a3.884 3.884 0 0 0 3.872 3.872h67.822a3.883 3.883 0 0 0 3.872-3.872V41.188h-.002zM48.789 29.533c-10.802 0-19.56 8.485-19.56 18.953s8.758 18.953 19.56 18.953c10.803 0 19.562-8.485 19.562-18.953s-8.758-18.953-19.562-18.953z"/></symbol><symbol viewBox="0 0 150 53" id="logotip"><path d="M24.202 51.6a5.822 5.822 0 0 1-1.907.9 7.2 7.2 0 0 1-1.891.271 8.413 8.413 0 0 1-2.314-.343 8.032 8.032 0 0 1-2.3-1.143c-.102.729-.32 1.2-.67 1.415-.348.2-.727.3-1.149.3-.262 0-.553-.029-.873-.114a2.922 2.922 0 0 1-.873-.343c.203-.258.32-.6.32-1.015-.058-.53-.277-.9-.684-1.13a2.284 2.284 0 0 0-1.223-.357c-.262 0-.567.086-.916.243-.35.157-.51.43-.51.858 0 .257.117.443.35.572.247.142.436.257.596.357-.102.257-.35.472-.713.629-.364.157-.684.228-.946.228-.437 0-.844-.085-1.237-.271-.393-.186-.67-.557-.83-1.13a5.44 5.44 0 0 1-.8.472c-.32.143-.713.23-1.193.23-.786 0-1.368-.23-1.747-.658-.363-.443-.844-.715-1.426-.83-.32 0-.626.158-.946.472a4.482 4.482 0 0 1-.247-.9A6.622 6.622 0 0 1 0 49.498c0-.514.16-.972.48-1.358.32-.4.786-.614 1.426-.672 0-.571.16-1.072.48-1.515.306-.443.816-.657 1.5-.657.64 0 1.15.143 1.557.457.393.315.67.686.83 1.1-.102.1-.19.172-.248.23-.044.057-.073.157-.073.314 0 .2.102.314.32.314.102 0 .48-.214 1.106-.628.64-.415 1.558-.63 2.78-.63.058-.771.306-1.357.757-1.743.451-.4.96-.586 1.543-.586 1.062 0 1.993.486 2.78 1.472-.525.157-.787.472-.787.943 0 .358.204.544.626.544.262 0 .553-.086.873-.272.32-.186.612-.372.873-.586.423.572.99 1.2 1.703 1.872.728.672 1.441 1.015 2.183 1.015.117 0 .291-.028.568-.086.262-.043.393-.2.393-.457 0-.157-.088-.272-.248-.314a1.28 1.28 0 0 0-.465-.086h-.248c0-.73.16-1.358.48-1.901.32-.543.903-.83 1.747-.83.844 0 1.513.272 1.98.787.48.514.727 1.215.727 2.101.727.372 1.295.543 1.659.543.378 0 .626-.086.757-.271a.828.828 0 0 0 .189-.5c0-.215-.146-.472-.466-.787.262-.572.815-.857 1.66-.857.64 0 1.149.271 1.556.786.393.514.597 1.172.597 1.944 0 1.3-.422 2.172-1.237 2.615-.815.443-1.6.658-2.343.658-.742 0-1.412-.043-2.023-.157a4.717 4.717 0 0 1-1.79-.7zm-7.539-17.453c.539 0 .845-.2.96-.586.103-.386.161-1.086.161-2.073V19.025h-2.46v15.122h1.34zm.8 7.475H5.88L.873 36.95v-2.802h1.514c.364 0 .771-.129 1.222-.4.451-.258.67-.743.67-1.472V17.624L.873 14.422v-2.887h26.589l3.653 3.273v3.816h-.553c-.8 0-1.28.315-1.441.944a8.847 8.847 0 0 0-.233 2.03v12.006c0 .772.16 1.43.48 1.987.32.543.903.843 1.747.886v5.145H18.657l-1.193-1.172v1.172zm-2.866-40.45c.437-.1.844-.2 1.237-.272.393-.085.83-.114 1.31-.114a9.97 9.97 0 0 1 2.62.343c.843.229 1.513.529 1.979.9 0-.528.16-.957.48-1.329.32-.357.844-.543 1.586-.543.48 0 .931.129 1.354.386-.219.415-.32.786-.32 1.1 0 .572.261.958.8 1.159.524.214 1.004.314 1.426.314 1.164 0 1.95-.6 2.372-1.787.64.1 1.15.315 1.557.658.393.343.597.872.597 1.6 0 1.044-.378 1.787-1.12 2.259-.743.472-1.616.7-2.62.7-.582 0-1.194-.057-1.82-.157a6.027 6.027 0 0 1-1.833-.614v.457c0 .729-.247 1.258-.742 1.558a3.038 3.038 0 0 1-1.63.472c-.902 0-1.703-.315-2.387-.93.378-.628.553-1.129.553-1.486 0-.515-.19-.958-.597-1.33-.393-.357-1.018-.542-1.862-.542-.626 0-1.165.128-1.587.385-.422.272-.625.63-.625 1.101 0 .315.174.772.553 1.4-.422-.214-.888-.37-1.398-.514a6.535 6.535 0 0 0-1.63-.186c-.887 0-1.76.186-2.604.586-.86.386-1.514 1.072-1.994 2.059-.48-.572-1.135-1.244-1.98-2.03-.844-.772-1.702-1.158-2.546-1.158-.102 0-.306.015-.597.029-.291.028-.437.143-.437.357 0 .1.117.258.32.472.219.2.379.329.48.386-.32.629-.814.929-1.513.929-.524 0-.99-.2-1.382-.615C.204 6.761 0 6.16 0 5.375c0-1.144.407-1.987 1.237-2.53.815-.544 1.674-.815 2.576-.815.786 0 1.484.143 2.067.428a7.382 7.382 0 0 1 1.586 1.044c.262-.1.393-.357.393-.772 0-.157-.058-.357-.16-.586-.102-.229-.291-.429-.553-.586.262-.472.684-.7 1.266-.7.422 0 .815.1 1.15.314.349.2.625.515.829.93.218-.315.51-.544.873-.701.437-.2.757-.372 1.004-.5.233-.13.408-.43.51-.901.422 0 .8.071 1.15.229.349.157.567.471.669.943zm9.445 49.498c.698.415 1.339.7 1.95.858a7.157 7.157 0 0 0 1.79.229 3.8 3.8 0 0 0 2.067-.587c.625-.386.946-1 .946-1.83 0-.514-.117-.957-.364-1.328a1.127 1.127 0 0 0-.99-.544.89.89 0 0 0-.35.086c-.13.043-.261.1-.363.157.102.158.218.3.32.43.102.128.16.3.16.5 0 .371-.189.671-.553.943a2.078 2.078 0 0 1-1.193.386c-1.106 0-2.008-.386-2.692-1.172 0-.63-.146-1.158-.437-1.601-.291-.443-.757-.658-1.397-.658-.422 0-.757.115-.99.343a2.68 2.68 0 0 0-.524.744c.277 0 .582.071.917.2.35.128.524.4.524.815 0 .571-.247.971-.713 1.214-.48.23-.99.344-1.513.344-.801 0-1.558-.272-2.3-.815-.742-.543-1.353-1.13-1.834-1.758-.684.414-1.295.629-1.819.629a1.2 1.2 0 0 1-.917-.386 1.38 1.38 0 0 1-.349-.944c0-.414.175-.771.553-1.086-.16-.157-.364-.3-.597-.429a1.733 1.733 0 0 0-.83-.2c-.48 0-.843.186-1.12.543a2.12 2.12 0 0 0-.393 1.258c0 .357.088.7.233 1-.684-.257-1.31-.385-1.892-.385-.64 0-1.266.228-1.877.672-.597.428-1.193.657-1.776.657-.582 0-.873-.229-.873-.7 0-.315.175-.6.553-.858-.378-.672-.873-1.015-1.513-1.015-.422 0-.743.129-.946.386-.219.257-.32.543-.32.858 0 .571.218 1.072.669 1.486.451.415.917.7 1.397.858-.116.043-.32.071-.64.071a1 1 0 0 1-.67-.228 4.421 4.421 0 0 1-.524-.515c-.16-.172-.32-.357-.509-.543a.968.968 0 0 0-.67-.272c-.276 0-.523.129-.756.386-.248.272-.364.63-.364 1.1 0 .158.03.287.087.387.204-.157.393-.229.553-.229.262 0 .495.072.713.229.204.157.437.314.67.471a6.5 6.5 0 0 0 .844.458c.306.157.684.243 1.106.243.582 0 1.106-.172 1.586-.515.48-.328.903-.715 1.266-1.129l.088.086c-.32.414-.48.772-.48 1.086 0 .415.145.73.436.944.291.2.626.3.99.3.218 0 .422-.043.64-.158-.48-.2-.713-.571-.713-1.086 0-.572.233-.972.713-1.2.466-.244 1.004-.358 1.586-.358.626 0 1.208.2 1.747.586.524.386.786 1.072.786 2.058.16.115.422.158.8.158.262 0 .539-.086.83-.272.29-.172.465-.472.524-.886 0-.529-.088-1.015-.248-1.487.742.73 1.514 1.301 2.3 1.716.8.414 1.804.628 3.027.628.582 0 1.207-.114 1.892-.314.698-.214 1.28-.543 1.746-1.015zM1.426 38.507v8.347l-.713.3v-9.348l.713.7zM.713 15.35l.713.629v17.538H.713V15.351zm0-7.404l.713.4v2.487H.713V7.947zM16.198 33.36V19.725h.786V33.36h-.786zm2.372-19.325v18.081c0 1.044-.19 1.773-.553 2.187-.364.415-.975.615-1.82.615h-.567v1.715h11.44v-1.715h-.553c-1.062 0-1.79-.2-2.183-.615-.407-.414-.597-1.143-.597-2.187V16.61c0-.943.219-1.6.67-1.987.45-.4 1.091-.586 1.95-.586h.713v-1.715H1.674v1.715h1.018c.743.043 1.325.257 1.747.615.422.371.64.915.64 1.643v16.21c0 .785-.233 1.386-.713 1.8-.48.415-1.062.615-1.746.615h-.946v1.715H13.17V34.92h-.553c-.684 0-1.252-.2-1.703-.615-.451-.414-.67-1.015-.67-1.8v-18.47h8.325zM14.13 2.186c0-.785-.32-1.257-.96-1.4-.204.458-.422.772-.626.93-.218.156-.568.314-1.033.47-.582.201-1.063.644-1.427 1.316 0-.572-.13-1.015-.407-1.358-.262-.343-.597-.5-1.033-.5-.262 0-.437.043-.553.143.32.314.48.686.48 1.1 0 .358-.117.686-.364.972-.233.286-.437.486-.582.586a8.039 8.039 0 0 0-1.717-1.129 4.452 4.452 0 0 0-2.096-.514c-.742 0-1.455.2-2.14.586C.976 3.773.64 4.445.64 5.374c0 .53.131.915.393 1.172.262.258.524.386.786.386a.776.776 0 0 0 .568-.228 3.47 3.47 0 0 1-.48-.358c-.16-.128-.233-.314-.233-.571.043-.43.29-.715.713-.858a4.022 4.022 0 0 1 1.426-.243c.946 0 1.79.314 2.532.943.742.615 1.295 1.158 1.674 1.63.364-.572.96-1.072 1.79-1.515a5.324 5.324 0 0 1 2.576-.672c.742 0 1.397.157 1.979.472-.16-.315-.233-.6-.233-.858 0-.572.306-1 .902-1.286.612-.286 1.368-.43 2.27-.43.947 0 1.82.23 2.62.673.786.428 1.208 1.1 1.267 1.986 0 .258-.03.5-.073.73a4.04 4.04 0 0 1-.248.743c.219.114.451.157.713.157.422 0 .83-.157 1.194-.472.378-.3.553-.772.553-1.4a3.42 3.42 0 0 0-.233-1.244c.582.471 1.252.815 2.023 1.058a7.961 7.961 0 0 0 2.27.343c.582 0 1.28-.13 2.096-.386.815-.258 1.251-.83 1.31-1.716 0-.729-.35-1.172-1.034-1.329-.422 1.144-1.324 1.715-2.692 1.715-.742 0-1.426-.185-2.023-.586-.611-.386-.917-.943-.917-1.672 0-.314.03-.543.073-.7-.742 0-1.237.128-1.499.386-.262.257-.407.657-.407 1.172 0 .1.058.371.16.786-.582-.415-1.325-.815-2.256-1.172-.931-.372-1.95-.543-3.056-.543-.582 0-1.135.042-1.674.157-.524.1-.975.286-1.339.543zm13.884 5.06l.713-.07v4.516l-.713-.629V7.247zm.713 35.163v3.587l-.713.229v-3.816h.713zm1.426-35.634l.713-.3v7.318l-.713-.772V6.775zm.713 35.548v3.902l-.713-.315v-3.587h.713zM3.42 40.379v4.202l-.728.315v-5.218l.728.7zm-.728-23.227l.728.7v15.194l-.728.4V17.153zm0-6.318V8.347l.728-.4v2.887h-.728zM5.56 42.323v2.501l-.713-.243v-2.873l.713.615zm-.713-31.489V6.775l.713.472v3.587h-.713zm2.78 31.417v3.817l-.728.314v-4.13h.728zm-.728-31.417V8.42l.728.7v1.715h-.728zm2.78 31.417v3.345l-.713.157v-3.502h.713zm-.713-31.417V9.12l.713-.857v2.572h-.713zm2.867 31.417v1.244l-.713.229V42.25h.713zm-.713-31.417V7.49l.713-.315v3.66h-.713zm2.852 31.417v1.401l-.713-.157V42.25h.713zm-.8-31.417V6.932h.713v3.902h-.713zm2.78 31.417v2.888l-.714-.63v-2.258h.713zm-.714-31.417V7.247l.713.243v3.344h-.713zm2.853 31.417v4.131l-.713-.629v-3.502h.713zm-.713-37.42h.713v6.003h-.713V4.831zm2.153 6.003V8.262l.713.471v2.101h-.713zm2.765 31.489v2.573l-.713.243v-2.816h.713zM21.582 8.89h.713v1.943h-.713V8.891zm2.867 33.432v2.573l-.713-.158v-2.415h.713zm-.713-33.747l.713-.629v2.887h-.713V8.576zm2.853 33.747v4.988l-.713-1.086v-3.902h.713zM25.876 7.09l.713.157v3.587h-.713V7.09zm-5.633 35.16v5.846l-.713-.386v-5.46h.713zm9.911-22.84h.713v16.365l-.713-.314V19.41zm14.699-7.46h-3.784v1.329h.16c.03-.3.117-.544.262-.73a.658.658 0 0 1 .568-.285h.29c.088 0 .146.043.175.114a.52.52 0 0 1 .073.243v2.716a.483.483 0 0 1-.16.357.509.509 0 0 1-.378.157v.158h1.79v-.158a.5.5 0 0 1-.364-.157.483.483 0 0 1-.16-.357V12.62c0-.086.014-.157.058-.243.044-.071.102-.114.19-.114h.276c.247 0 .436.086.582.286.145.185.233.428.262.729h.16v-1.33zm5.747 3.9a.526.526 0 0 1-.363-.157.483.483 0 0 1-.16-.357V12.62c0-.143.058-.271.16-.372a.55.55 0 0 1 .363-.142v-.158h-1.79v.158c.146 0 .277.057.379.142.102.1.16.23.16.372v.086l-1.747 2.058h-.029V12.62a.52.52 0 0 1 .16-.372.55.55 0 0 1 .364-.142v-.158h-1.775v.158a.55.55 0 0 1 .364.142c.102.1.16.23.16.372v2.716a.483.483 0 0 1-.16.357.5.5 0 0 1-.364.157v.158h1.775v-.158a.526.526 0 0 1-.364-.157.483.483 0 0 1-.16-.357v-.086l1.747-2.072h.029v2.158a.507.507 0 0 1-.16.357.533.533 0 0 1-.379.157v.158h1.79v-.158zm5.894 0a.509.509 0 0 1-.378-.157.47.47 0 0 1-.145-.357V12.62c0-.143.043-.271.145-.372a.559.559 0 0 1 .378-.142v-.158h-4.147v.158c.145 0 .276.057.378.142.102.1.146.23.146.372v2.716a.47.47 0 0 1-.146.357.533.533 0 0 1-.378.157v.158h1.79v-.158a.533.533 0 0 1-.379-.157.47.47 0 0 1-.145-.357V12.62c0-.143.03-.229.102-.286a.682.682 0 0 1 .335-.071h.727c.16 0 .277.028.35.071.072.057.101.143.101.286v2.716a.455.455 0 0 1-.16.357.509.509 0 0 1-.378.157v.158h1.804v-.158zm4.614-1.872c0 1.186-.335 1.787-1.019 1.787-.67 0-1.004-.6-1.004-1.787 0-1.2.335-1.801 1.004-1.801.684 0 1.019.6 1.019 1.801zm.771 0c0-.658-.16-1.172-.451-1.558-.291-.372-.742-.557-1.339-.557-.29 0-.553.057-.786.185a1.514 1.514 0 0 0-.553.486 2.38 2.38 0 0 0-.32.672c-.073.257-.116.5-.116.772 0 .657.145 1.172.45 1.544.292.371.743.557 1.325.557s1.019-.2 1.324-.629c.306-.414.466-.9.466-1.472zm4.875-2.03H63.7v.158c.146 0 .277.057.379.142.102.1.145.23.145.372v2.716a.47.47 0 0 1-.145.357.533.533 0 0 1-.379.157v.158h1.79v-.158a.56.56 0 0 1-.378-.157.47.47 0 0 1-.146-.357V12.62c0-.086.015-.157.059-.243.043-.071.102-.114.174-.114h.553c.233 0 .437.086.568.286.145.185.233.428.262.729h.174v-1.33zm4.745 2.03c0 .557-.073 1-.233 1.315-.16.314-.393.472-.713.472-.277 0-.524-.143-.742-.43-.233-.285-.335-.757-.335-1.428 0-.486.102-.9.32-1.23.218-.328.495-.5.844-.5.568 0 .859.6.859 1.801zm.771-.114c0-.572-.116-1.058-.364-1.43-.247-.386-.625-.571-1.12-.571-.582 0-1.004.257-1.28.757h-.03v-.672H68.21v.143c.145 0 .276.057.378.157.102.1.146.23.146.372v4.631a.501.501 0 0 1-.146.372.52.52 0 0 1-.378.143v.171H70v-.171a.544.544 0 0 1-.379-.143.501.501 0 0 1-.145-.372v-1.8h.03c.086.17.246.328.436.457.203.128.436.185.684.185.45 0 .844-.185 1.164-.571.32-.372.48-.93.48-1.658zm4.22.943c0 .186-.116.386-.349.586-.233.2-.465.3-.713.3a.632.632 0 0 1-.45-.171c-.132-.129-.19-.286-.19-.5 0-.687.567-1.115 1.703-1.273v1.058zm1.34.743c0-.028-.015-.043-.044-.057-.015-.014-.044 0-.058.029a.38.38 0 0 1-.291.143c-.146 0-.219-.129-.219-.4v-2.273c0-.372-.145-.658-.45-.844-.307-.2-.67-.285-1.107-.285a1.84 1.84 0 0 0-.99.271c-.305.186-.45.415-.45.7 0 .115.028.215.101.315a.39.39 0 0 0 .306.143.362.362 0 0 0 .305-.157.408.408 0 0 0 .073-.343c-.014-.043-.014-.072-.029-.115l-.044-.085c0-.029-.014-.058-.014-.1 0-.215.247-.33.727-.33.248 0 .452.072.612.2.16.13.233.344.233.615v.515c-.277.057-.524.1-.728.143a7.77 7.77 0 0 0-.67.171c-.232.086-.422.172-.567.286-.146.1-.262.229-.364.386a1.065 1.065 0 0 0-.145.558c0 .343.116.6.334.772.219.185.466.271.772.271.189 0 .363-.028.538-.1a2 2 0 0 0 .408-.243c.101-.071.232-.186.392-.329h.03c.029.458.189.686.48.686a.88.88 0 0 0 .407-.114 1 1 0 0 0 .291-.186c.059-.071.102-.128.146-.171 0-.015.014-.043.014-.072zm4.016-.915c0 .23-.073.472-.218.744-.146.257-.335.386-.568.386-.276 0-.48-.172-.61-.515-.132-.329-.19-.757-.19-1.272 0-1.143.233-1.715.728-1.715.232 0 .436.1.61.314a1 1 0 0 1 .248.686v1.372zm2.314-.657c0 .515-.058.943-.189 1.272-.131.343-.335.515-.611.515-.233 0-.422-.129-.568-.386-.145-.272-.218-.515-.218-.744v-1.372c0-.257.087-.486.262-.686a.726.726 0 0 1 .611-.314c.48 0 .713.572.713 1.715zm.771-.157c0-.586-.101-1.058-.334-1.415-.219-.358-.553-.543-1.004-.543-.364 0-.684.171-.976.5h-.029V9.877h-1.266v.157a.51.51 0 0 1 .379.157.48.48 0 0 1 .145.372v1.8h-.014c-.291-.328-.626-.5-.99-.5-.451 0-.786.186-1.019.544-.218.357-.334.829-.334 1.415 0 .643.145 1.186.436 1.615.291.429.67.643 1.135.643.16 0 .306-.043.451-.129.146-.1.248-.185.32-.3h.015v1.601a.501.501 0 0 1-.145.372.52.52 0 0 1-.379.143v.171h1.79v-.171a.52.52 0 0 1-.378-.143.501.501 0 0 1-.146-.372v-1.6h.03c.058.114.16.2.305.3a.865.865 0 0 0 .451.128c.466 0 .844-.214 1.135-.629.277-.429.422-.972.422-1.63zm6.127 2.03a.533.533 0 0 1-.378-.158.483.483 0 0 1-.16-.357V12.62c0-.143.058-.271.16-.372a.559.559 0 0 1 .378-.142v-.158h-1.804v.158c.145 0 .276.057.378.142.102.1.16.23.16.372v.086l-1.746 2.058h-.03V12.62a.52.52 0 0 1 .16-.372.559.559 0 0 1 .38-.142v-.158h-1.79v.158c.145 0 .276.057.378.142.087.1.145.23.145.372v2.716a.53.53 0 0 1-.145.357.533.533 0 0 1-.379.157v.158h1.79v-.158a.533.533 0 0 1-.378-.157.483.483 0 0 1-.16-.357v-.086l1.746-2.072h.03v2.158a.507.507 0 0 1-.16.357.533.533 0 0 1-.38.157v.158h1.805v-.158zm3.755-1.873a1.31 1.31 0 0 1-.51-.086.534.534 0 0 1-.29-.228.855.855 0 0 1-.117-.3c-.029-.086-.029-.2-.029-.33 0-.2.058-.385.204-.557a.604.604 0 0 1 .495-.229l.465.015c.306 0 .452.1.452.3v1.415h-.67zm.67.257v1.1a.483.483 0 0 1-.16.358.509.509 0 0 1-.379.157v.158h1.79v-.158a.5.5 0 0 1-.364-.157.483.483 0 0 1-.16-.357V12.62c0-.143.058-.257.16-.357a.5.5 0 0 1 .364-.157v-.158h-2.401c-.379 0-.67.115-.902.343a1.074 1.074 0 0 0-.335.772c0 .257.116.5.35.743.217.23.538.358.916.386l.014.029c-.145.057-.305.2-.494.414l-.786.901a1.77 1.77 0 0 1-.277.243.6.6 0 0 1-.305.071v.158h1.15l1.164-1.444a.954.954 0 0 1 .233-.243c.072-.043.13-.071.174-.071.044-.015.131-.015.248-.015zM53.017 36.162V21.37c0-.4-.043-.458-.495-.458H41.74c-.437 0-.466.057-.466.458v14.793c0 .43.029.472.466.472h3.58c.393 0 .48-.043.48-.472V24.528h2.692v11.634c0 .43.015.472.466.472h3.565c.452 0 .495-.043.495-.472zm12.516-14.708c.03-.114.044-.228.044-.3 0-.186-.087-.243-.437-.243h-9.11c-.437 0-.495.057-.495.458v14.793c0 .43.058.472.495.472h8.921c.451 0 .466-.043.466-.472v-2.658c0-.4-.015-.472-.466-.472h-4.875V30.36h3.754c.393 0 .495-.071.495-.457v-2.644c0-.43-.102-.486-.495-.486h-3.754v-2.287h4.555c.29 0 .466-.043.51-.372l.392-2.659zm8.645 14.837c0 .329.204.343.32.343h3.827c.364 0 .379-.114.379-.229V21.14c0-.114-.015-.229-.379-.229h-3.798c-.16 0-.35 0-.35.358V27.6a2.962 2.962 0 0 1-1.455.371c-.698 0-1.513-.271-1.513-1.772V21.21c0-.3-.204-.3-.306-.3h-3.9c-.116 0-.32 0-.32.358v5.688c0 1.087.043 2.259 1.193 3.26 1.048.943 2.474 1.086 3.435 1.086 1.135 0 2.008-.186 2.867-.6v5.588zm20.2-.2l-4.905-14.794c-.145-.371-.16-.386-.538-.386h-3.479c-.393 0-.422.043-.509.386l-4.89 14.794c-.043.114-.087.229-.087.314 0 .143.116.23.495.23h3.638c.364 0 .364-.015.495-.387l.946-3.273h3.07l.874 3.273c.102.372.116.386.524.386h3.943c.35 0 .466-.057.466-.271 0-.072-.029-.158-.043-.272zm-6.418-6.218h-1.892l.596-2.687c.146-.657.306-1.872.408-2.616.087.7.29 1.973.407 2.616l.48 2.687zm17.885-8.419c.015-.114.015-.2.015-.271 0-.215-.087-.272-.437-.272H94.45c-.45 0-.495.057-.495.458v2.858c0 .443.044.486.495.486h3.013v11.45c0 .428.044.471.48.471h3.58c.437 0 .466-.043.466-.472V24.713h2.823c.35 0 .422-.071.495-.386l.538-2.873zm13.171 14.708V21.37c0-.4-.058-.458-.495-.458h-3.58c-.436 0-.465.057-.465.458v5.403h-3.028V21.37c0-.4-.101-.458-.494-.458h-3.566c-.451 0-.48.057-.48.458v14.793c0 .43.029.472.48.472h3.566c.393 0 .495-.043.495-.472v-5.76h3.027v5.76c0 .43.029.472.465.472h3.58c.437 0 .495-.043.495-.472zm15.31-14.936c0-.272-.16-.315-.364-.315h-4.191c-.306 0-.422.158-.48.315l-1.732 4.288c-.728 1.786-1.077 2.43-1.848 4.445h-.131c.014-.171.203-2.902.203-4.26v-4.516c0-.186-.087-.272-.276-.272h-3.595c-.262 0-.378.057-.378.343v15.108c0 .186.087.272.276.272h4.017c.277 0 .393-.229.466-.357l2.052-4.846c1.193-2.816 1.571-3.873 1.833-4.702h.117c-.073.786-.218 2.715-.218 3.83v5.732c0 .286.116.343.378.343h3.522c.19 0 .35-.014.35-.272V21.226zm7.059 8.976h.785c.917 0 1.456.472 1.587 1.344l.378 2.358c.45 2.844 2.896 3.13 4.468 3.13.422 0 .466-.171.538-.343l.83-2.601c.029-.043.029-.072.029-.115 0-.2-.218-.271-.35-.314l-.465-.114c-.466-.143-.931-.215-1.164-1.358l-.262-1.3c-.218-1.101-.888-2.045-2.154-2.43v-.072c1.193-.343 1.688-1.287 1.848-2.001l.262-1.144c.16-.872.51-1.258 1.063-1.4l.61-.158c.074-.028.263-.1.263-.3 0-.043 0-.086-.03-.143l-.712-2.43c-.073-.2-.248-.3-.612-.3-1.66 0-3.783.93-4.235 3.288l-.247 1.357c-.19 1.115-.655 1.716-1.688 1.716h-.742v-5.69c0-.185-.102-.27-.277-.27h-3.886c-.247 0-.364.056-.364.342v14.994c0 .229.015.386.364.386h3.9c.117 0 .263-.057.263-.271v-6.161z"/></symbol><symbol viewBox="0 0 12 12" id="modal-close"><path d="M11.414 2.414a1.414 1.414 0 1 0-2-2l-3.5 3.5-3.5-3.5a1.414 1.414 0 1 0-2 2l3.5 3.5-3.5 3.5a1.414 1.414 0 0 0 2 2l3.5-3.5 3.5 3.5a1.414 1.414 0 1 0 2-2l-3.5-3.5 3.5-3.5z"/></symbol><symbol viewBox="0 0 7 4" id="navbar-dropdown"><path d="M3.5 4a.488.488 0 0 1-.347-.144L.143.84a.492.492 0 0 1 0-.695.49.49 0 0 1 .694 0L3.5 2.814 6.163.144a.49.49 0 0 1 .693 0 .492.492 0 0 1 0 .695l-3.01 3.017A.488.488 0 0 1 3.5 4z"/></symbol><symbol viewBox="0 0 11 17" id="pagin-next"><path fill-rule="evenodd" clip-rule="evenodd" d="M.9.98A1.5 1.5 0 0 0 .98 3.1l5.816 5.4-5.817 5.4a1.5 1.5 0 0 0 2.042 2.2l7-6.5a1.5 1.5 0 0 0 0-2.2l-7-6.5A1.5 1.5 0 0 0 .9.98z"/></symbol><symbol viewBox="0 0 11 17" id="pagin-prev"><path fill-rule="evenodd" clip-rule="evenodd" d="M10.1.98a1.5 1.5 0 0 1-.08 2.12L4.205 8.5l5.817 5.4a1.5 1.5 0 0 1-2.042 2.2l-7-6.5a1.5 1.5 0 0 1 0-2.2l7-6.5a1.5 1.5 0 0 1 2.12.08z"/></symbol><symbol viewBox="0 0 459.325 459.325" id="plus"><path d="M459.319 229.668c0 22.201-17.992 40.193-40.205 40.193H269.85v149.271c0 22.207-17.998 40.199-40.196 40.193-11.101 0-21.149-4.492-28.416-11.763-7.276-7.281-11.774-17.324-11.769-28.419l-.006-149.288H40.181c-11.094 0-21.134-4.492-28.416-11.774C4.501 250.817.006 240.769.006 229.668 0 207.471 17.992 189.475 40.202 189.475h149.267V40.202C189.469 17.998 207.471 0 229.671 0c22.192.006 40.178 17.986 40.19 40.187v149.288h149.282c22.196.012 40.165 17.996 40.176 40.193z"/></symbol><symbol viewBox="0 0 10 12" id="ruble"><path fill-rule="evenodd" clip-rule="evenodd" d="M2.914 7.78v-.239h2.554c1.432 0 2.543-.327 3.335-.98C9.601 5.906 10 4.99 10 3.816c0-1.149-.407-2.072-1.222-2.77C7.968.35 6.874 0 5.494 0H1.767a1 1 0 0 0-1 1v4.868A.767.767 0 0 0 0 6.635v.14c0 .423.343.766.767.766v.24H.703a.703.703 0 0 0 0 1.406h.064v1.74a1.074 1.074 0 0 0 2.147 0v-1.74h1.452a.703.703 0 1 0 0-1.407H2.914zm2.58-1.912h-2.58V1.681h2.64c.712.011 1.272.212 1.68.602.407.384.61.901.61 1.55 0 .659-.2 1.164-.602 1.516-.402.346-.985.52-1.748.52z"/></symbol><symbol viewBox="0 0 54 37" id="slick-left"><path d="M.736 20.268l16.069 16c.98.976 2.57.976 3.55 0a2.49 2.49 0 0 0 0-3.536L8.574 21H51.49c1.386 0 2.51-1.12 2.51-2.5S52.876 16 51.49 16H8.572L20.356 4.268c.98-.977.98-2.56 0-3.536A2.51 2.51 0 0 0 18.58 0a2.51 2.51 0 0 0-1.775.732l-16.07 16c-.98.977-.98 2.56 0 3.536z"/></symbol><symbol viewBox="0 0 54 37" id="slick-right"><path d="M53.264 16.732l-16.07-16a2.519 2.519 0 0 0-3.55 0c-.98.977-.98 2.56 0 3.536L45.427 16H2.511A2.506 2.506 0 0 0 0 18.5C0 19.88 1.124 21 2.51 21h42.917L33.644 32.732c-.98.977-.98 2.56 0 3.536A2.51 2.51 0 0 0 35.42 37a2.51 2.51 0 0 0 1.775-.732l16.07-16c.98-.977.98-2.56 0-3.536z"/></symbol><symbol viewBox="0 0 62 62" id="view"><path fill-rule="evenodd" clip-rule="evenodd" d="M31 61c16.569 0 30-13.431 30-30C61 14.431 47.569 1 31 1 14.431 1 1 14.431 1 31c0 16.569 13.431 30 30 30zm0 1c17.12 0 31-13.88 31-31C62 13.88 48.12 0 31 0 13.88 0 0 13.88 0 31c0 17.12 13.88 31 31 31z"/><path fill-rule="evenodd" clip-rule="evenodd" d="M31 55c13.255 0 24-10.745 24-24S44.255 7 31 7 7 17.745 7 31s10.745 24 24 24zm1.125-22.875h6.75a1.125 1.125 0 1 0 0-2.25h-6.75v-6.75a1.125 1.125 0 0 0-2.25 0v6.75h-6.75a1.125 1.125 0 0 0 0 2.25h6.75v6.75a1.125 1.125 0 0 0 2.25 0v-6.75z"/></symbol><symbol viewBox="0 0 304.36 304.36" id="vk"><path d="M261.945 175.576c10.096 9.857 20.752 19.131 29.807 29.982 4 4.822 7.787 9.798 10.684 15.394 4.105 7.955.387 16.709-6.746 17.184l-44.34-.02c-11.436.949-20.559-3.655-28.23-11.474-6.139-6.253-11.824-12.908-17.727-19.372-2.42-2.642-4.953-5.128-7.979-7.093-6.053-3.929-11.307-2.726-14.766 3.587-3.523 6.421-4.322 13.531-4.668 20.687-.475 10.441-3.631 13.186-14.119 13.664-22.414 1.057-43.686-2.334-63.447-13.641-17.422-9.968-30.932-24.04-42.691-39.971-22.895-31.021-40.428-65.108-56.186-100.15C-2.01 76.458.584 72.22 9.295 72.07c14.465-.281 28.928-.261 43.41-.02 5.879.086 9.771 3.458 12.041 9.012 7.826 19.243 17.402 37.551 29.422 54.521 3.201 4.518 6.465 9.036 11.113 12.216 5.142 3.521 9.057 2.354 11.476-3.374 1.535-3.632 2.207-7.544 2.553-11.434 1.146-13.383 1.297-26.743-.713-40.079-1.234-8.323-5.922-13.711-14.227-15.286-4.238-.803-3.607-2.38-1.555-4.799 3.564-4.172 6.916-6.769 13.598-6.769h50.111c7.889 1.557 9.641 5.101 10.721 13.039l.043 55.663c-.086 3.073 1.535 12.192 7.07 14.226 4.43 1.448 7.35-2.096 10.008-4.905 11.998-12.734 20.561-27.783 28.211-43.366 3.395-6.852 6.314-13.968 9.143-21.078 2.096-5.276 5.385-7.872 11.328-7.757l48.229.043c1.43 0 2.877.021 4.262.258 8.127 1.385 10.354 4.881 7.844 12.817-3.955 12.451-11.65 22.827-19.174 33.251-8.043 11.129-16.645 21.877-24.621 33.072-7.328 10.223-6.746 15.376 2.357 24.255zm0 0" fill-rule="evenodd" clip-rule="evenodd"/></symbol></svg>