<svg version="1" xmlns="http://www.w3.org/2000/svg" width="346.667" height="346.667" viewBox="0 0 260.000000 260.000000"><path d="M23 9c0 8.9 0 9 2.5 9s2.5-.1 2.5-9 0-9-2.5-9S23 .1 23 9zM37 9c0 8.9 0 9 2.5 9s2.5-.1 2.5-9 0-9-2.5-9S37 .1 37 9zM52 9c0 8.9 0 9 2.5 9s2.5-.1 2.5-9 0-9-2.5-9S52 .1 52 9zM74.6 1.5c.4.8 1 1.5 1.4 1.5.4 0 1-.7 1.4-1.5.4-1-.1-1.5-1.4-1.5-1.3 0-1.8.5-1.4 1.5zM96.4 9c-.1 8.8 0 9 2.3 9 2.5 0 2.5.2 2.6-11 .1-6.2 0-6.5-2.4-6.8-2.4-.3-2.5-.3-2.5 8.8zM111 9c0 8.9 0 9 2.5 9s2.5-.1 2.5-9 0-9-2.5-9-2.5.1-2.5 9zM125.7.7c-.2.5-.3 4.4-.3 8.8.1 7.8.1 8 2.6 8s2.5-.1 2.6-8.8c.2-8.5.1-8.7-2.2-8.7-1.2 0-2.5.3-2.7.7zM140.9 1.2c-.1 1.6-.1 13.8 0 15.6.1.8 1 1.2 2.4 1 2.1-.3 2.2-.7 2.2-8.8 0-8.1-.1-8.5-2.2-8.8-1.4-.2-2.3.2-2.4 1zM155.7 7.2c.1 4 .2 8.1.2 9 .1 1.2.9 1.8 2.6 1.8 2.4 0 2.5-.2 2.5-7.4 0-6.6-.3-7.7-2.2-9C157.6.7 156.3 0 156 0c-.3 0-.4 3.3-.3 7.2zM186.5.8c-.6.4-1.1 4.3-1 8.7 0 7.9 0 8 2.5 8s2.5-.1 2.5-8.5c0-6.7-.3-8.5-1.5-8.7-.8-.2-2 0-2.5.5zM200.8 1.2c-.2.7-.3 4.7-.3 8.8 0 7.2.1 7.5 2.5 7.8l2.5.3V9.3c0-8.2-.1-8.8-2.1-9.1-1.2-.2-2.3.3-2.6 1zM215.5 9.8c0 9.5.1 9.9 2.8 12.1l2.7 2.3V0h-5.5v9.8zM231 16.8c0 15.5.2 17 2 19 1.2 1.2 2.3 2.2 2.5 2.2.3 0 .5-8.6.5-19V0h-5v16.8zM66.5 9.5V18h2.8c2.7 0 2.7 0 2.4-6.3-.2-4.4-.9-6.9-2.2-8.5C68.4 2 67.3 1 67 1c-.3 0-.5 3.8-.5 8.5zM82.8 3.4c-1.2 1.7-1.7 4.1-1.6 8.5.1 5.9.3 6.1 2.7 6.1 2.6 0 2.6 0 2.6-8.5 0-8.9-.8-10.2-3.7-6.1zM170.4 10.7c.1 5.8.4 6.8 2 7.1 1 .2 2.1-.1 2.5-.6.5-.8.6-9 .2-12.5-.1-.4-1.1-.7-2.4-.7-2.2 0-2.3.3-2.3 6.7zM24 33.2v10.3l12.1 11.6 12.2 11.5v54.5c0 44.4-.3 55.1-1.4 57.4-2.2 4.6-6.9 6.7-15.2 6.9l-7.2.2-.3 9.8-.3 9.9 6.9 6.6c16.6 15.9 25.9 24.7 27.5 26 1.4 1.1 9.3 1.3 41.8 1.3 22 0 40.3-.3 40.6-.6.4-.3.6-2.3.5-4.3l-.2-3.7 4.4 4.3 4.4 4.3h34.8c19.2-.1 39-.1 43.9-.1l9.1-.1-.1-18.2v-18.1l-3.5-1.1c-4.9-1.5-7.4-3.5-9.6-7.6-1.8-3.3-1.9-6.6-2.1-55-.2-32.4.1-53.2.8-56 1.4-6.1 3.7-8.2 9.6-8.7l4.9-.5-.1-13.5c0-15.8 2-12.6-19.4-31.6l-6.4-5.7H24v10.2zm184.8 1.5l.3 6.1-6.8.4c-5.1.2-7.7.9-10.1 2.6-6.9 5-6.6 1.9-6.6 71.2-.1 57.1.1 62.9 1.7 67 2.2 5.9 5.7 8 14.7 8.7l7 .6v5.7c0 3.8-.4 5.9-1.2 6.2-1.1.3-72.3.2-77.9-.1-1.3-.1-1.6-1.3-1.7-6v-5.9l5.9-.4c3.8-.3 6.9-1.1 8.7-2.5 5.9-4.3 5.7-1.5 6-77.6l.3-69.7H90.3l.1 69.8.1 69.9 2.7 3.5c3.3 4.3 8.3 6.8 13.7 6.8h4.2l-.3 6.2-.3 6.2H70.3l-40.3.1-.1-2.8c0-1.5-.1-4.2-.2-6l-.1-3.2 6.6-.6c8.3-.7 12.7-3.2 15.5-8.8l2.2-4.4.1-62c0-60.6 0-62.1-2-66.3-2.6-5.2-7.1-7.6-15.7-8.2-6.8-.5-6.4 0-6.7-7.2-.2-5.9-6.8-5.5 90.1-5.4h88.8l.3 6.1zm-65.3 89.8c0 48.4-.4 56.8-2.8 59.2-.9.9-4 1.5-8.1 1.7l-6.6.3V77.1l4.8-.3c2.6-.2 6.5-.1 8.7.2l4 .5v47z"/><path d="M134.4 81.8l-2.1.3V180H138v-48.9c0-27-.3-49.1-.7-49.3-.5-.2-1.8-.2-2.9 0zM23 116v65h5l.1-19.8C28.2 94.5 27.8 55.6 27 54c-.5-1-1.6-2-2.5-2.4-1.3-.5-1.5 6.6-1.5 64.4zM37 121.5c0 32.2.3 58.5.6 58.5s1.4-.5 2.5-1c1.8-1 1.9-2.7 1.9-56V68.1l-2.5-2.5-2.5-2.5v58.4zM232.3 79.7c-1 .4-1.3 12.8-1.3 57.5 0 53.2.1 57.2 1.8 58.4.9.7 2 1.4 2.5 1.4.4 0 .7-26.3.7-58.4 0-60.1 0-60.2-3.7-58.9zM23 235.9V260h5l.1-11.3c.2-31.4.1-31.7-2.6-34.5l-2.5-2.5v24.2zM37 242.3V260h5v-14.8c0-14.2-.1-14.8-2.5-17.6l-2.5-2.9v17.6zM52 249.8V260h2.5c2.5 0 2.5-.1 2.5-7.8 0-7.1-.2-8.1-2.5-10.2l-2.5-2.3v10.1zM69 243.9c-2.4.7-2.5 1-2.4 8.1 0 7.4 0 7.5 2.7 7.8l2.7.3-.2-8.5c-.1-4.7-.2-8.6-.3-8.5 0 .1-1.1.4-2.5.8zM81.6 243.7c-.3.4-.6 4.2-.6 8.5v7.8h5.5v-7.6c-.1-6.9-.3-7.8-2.2-8.5-1.2-.4-2.4-.5-2.7-.2zM97.4 243.8c-1.4.9-1.3 10.2 0 10.2 2.4 0 3.9-2 4.2-5.4.2-3.7-2-6.2-4.2-4.8zM111.9 243.4c-.1 0-.2 2.1-.3 4.5-.2 3.5.2 4.5 1.9 5.1 2.9 1.1 3.3.6 3.2-4.4 0-3.8-.4-4.5-2.4-4.9-1.3-.2-2.3-.4-2.4-.3zM126.9 244.1c-1 .6-1.4 3-1.4 8.4 0 7.5 0 7.6 2.5 7.3 2.4-.3 2.5-.6 2.6-8 .2-7.8-.7-9.6-3.7-7.7zM155.9 244.4c-.1 1.3-.1 13.8 0 14.8.1.5 1.2.8 2.6.8 2.5 0 2.5-.1 2.5-7.9 0-7.6-.1-7.9-2.5-8.3-1.4-.3-2.5 0-2.6.6zM140.9 245c0 .5-.1 4-.2 7.7-.1 6.5 0 6.8 2.4 7.1 2.4.3 2.4.2 2.5-7.8.1-7.7 0-8-2.3-8-1.2 0-2.3.4-2.4 1zM170.8 244.7c-.3.4-.4 3.9-.4 7.8.1 6 .4 7 2 7.3 2.7.6 3.1-.8 3-8.5 0-6.1-.3-6.8-2.1-7.1-1.2-.2-2.3 0-2.5.5zM185.9 244.2c-.1.2-.2 3.8-.3 8.1-.1 7.8-.1 7.8 2.4 7.5 2.4-.3 2.5-.6 2.5-6.8.1-8-.2-9-2.6-9-1 0-2 .1-2 .2zM200.9 246.2c-.1 1.3-.2 4.8-.2 7.8 0 5.1.2 5.5 2.4 5.8 2.4.3 2.5.2 2.4-7.5 0-7.3-.1-7.8-2.2-8.1-1.8-.3-2.3.2-2.4 2zM231 251.9c0 8 0 8.1 2.5 8.1 2.6 0 2.6 0 2.3-7.8-.3-7.1-.5-7.7-2.5-8-2.2-.3-2.3-.1-2.3 7.7zM215.9 246.2c-.1 1.8-.1 11 0 12.5.1.7 1.2 1.3 2.6 1.3 2.4 0 2.5-.2 2.5-7.5s-.1-7.5-2.5-7.5c-1.4 0-2.5.6-2.6 1.2zM101.5 257.7c-5.5 1.3-3.1 2.3 5.6 2.2 9 0 9.2-.1 5.9-1.4-3.5-1.4-7.9-1.7-11.5-.8z"/></svg>