<svg width="28" height="50" viewBox="0 0 28 50" xmlns="http://www.w3.org/2000/svg">
<path d="M14.372 50H13.6273C6.10624 50 0 43.9349 0 36.4645V13.5355C0 6.06509 6.10624 0 13.6273 0H14.372C21.8931 0 27.9993 6.06509 27.9993 13.5355V36.4645C28.0738 43.9349 21.8931 50 14.372 50ZM13.7018 1.47929C6.99983 1.47929 1.56379 6.8787 1.56379 13.5355V36.4645C1.56379 43.1213 6.99983 48.5207 13.7018 48.5207H14.4465C21.1484 48.5207 26.5845 43.1213 26.5845 36.4645V13.5355C26.5845 6.8787 21.1484 1.47929 14.4465 1.47929H13.7018Z"/>
<path d="M14.0736 21.1366C13.1587 21.1366 12.32 20.167 12.32 19.0035V12.7014C12.32 11.5379 13.0824 10.5683 13.9974 10.5683C14.9123 10.5683 15.6747 11.5379 15.6747 12.7014V19.0035C15.751 20.167 14.9885 21.1366 14.0736 21.1366Z"/>
</svg>
