<svg width="69" height="69" viewBox="0 0 69 69" xmlns="http://www.w3.org/2000/svg">
<path d="M35.5862 14.9237C35.5862 12.7393 33.8092 10.9624 31.6247 10.9624H24.3444C26.1132 8.97418 27.2693 6.71025 27.4926 4.6792C27.6289 3.43868 27.2457 2.20733 26.4407 1.30076C25.705 0.472084 24.699 0.0102421 23.6079 0.000134716C23.5953 -4.93569e-08 23.5826 2.46763e-08 23.5701 2.46763e-08C22.5147 2.46763e-08 21.5242 0.406453 20.7767 1.14713C20.029 1.88793 19.6152 2.87482 19.6104 3.92801C19.572 4.1586 19.1663 4.95358 18.1738 5.89748C17.3612 6.67049 15.9574 7.73312 13.8849 8.40601C13.0722 8.66988 12.3296 9.15571 11.6776 9.85002C11.3354 10.2142 10.823 10.7171 10.1887 11.2219C9.87736 11.057 9.52334 10.9626 9.14721 10.9626H2.2328C1.00158 10.9626 -2.30312e-07 11.9642 -2.30312e-07 13.1954V31.6338C-2.30312e-07 32.865 1.00158 33.8666 2.2328 33.8666H9.14721C9.98652 33.8666 10.7184 33.4006 11.0998 32.7142H28.7437C30.6104 32.7142 32.1289 31.1957 32.1289 29.3291C32.1289 28.7014 31.9573 28.1133 31.6584 27.6088C32.631 27.0134 33.2813 25.9409 33.2813 24.7194C33.2813 24.0918 33.1097 23.5037 32.8108 22.9991C33.7834 22.4037 34.4337 21.3312 34.4337 20.1097C34.4337 19.4033 34.2161 18.7467 33.8446 18.2033C34.8948 17.49 35.5862 16.286 35.5862 14.9237ZM31.6247 16.7243H31.0485C30.4519 16.7243 29.9681 17.208 29.9681 17.8047C29.9681 18.4013 30.4517 18.8851 31.0485 18.8851C31.7237 18.8851 32.273 19.4344 32.273 20.1096C32.273 20.7848 31.7237 21.3341 31.0485 21.3341H29.8961C29.2995 21.3341 28.8157 21.8178 28.8157 22.4145C28.8157 23.0111 29.2994 23.4949 29.8961 23.4949C30.5713 23.4949 31.1206 24.0442 31.1206 24.7194C31.1206 25.3946 30.5713 25.9439 29.8961 25.9439H28.7437C28.1471 25.9439 27.6633 26.4275 27.6633 27.0243C27.6633 27.6209 28.147 28.1047 28.7437 28.1047C29.4189 28.1047 29.9682 28.654 29.9682 29.3292C29.9682 30.0044 29.4189 30.5537 28.7437 30.5537H11.38V20.11C11.38 19.5134 10.8963 19.0296 10.2996 19.0296C9.70284 19.0296 9.21917 19.5133 9.21917 20.11V31.6339C9.21917 31.6737 9.18696 31.7059 9.14721 31.7059H2.2328C2.19304 31.7059 2.16083 31.6737 2.16083 31.6339V13.195C2.16083 13.1553 2.19304 13.1231 2.2328 13.1231H9.14721C9.18696 13.1231 9.21917 13.1553 9.21917 13.195V15.4999C9.21917 16.0965 9.70284 16.5804 10.2996 16.5804C10.8963 16.5804 11.38 16.0967 11.38 15.4999V13.195C11.38 13.1426 11.3757 13.0913 11.372 13.0398C12.1821 12.4127 12.8299 11.7788 13.2526 11.3289C13.6524 10.9029 14.0896 10.611 14.552 10.461C17.095 9.63547 18.8064 8.30615 19.7941 7.33637C21.032 6.12092 21.771 4.85385 21.771 3.94675C21.771 3.46752 21.9579 3.01835 22.2973 2.68197C22.641 2.34142 23.0961 2.16151 23.5879 2.16083C24.1935 2.16649 24.5946 2.47632 24.8246 2.73534C25.2189 3.17939 25.413 3.81791 25.3444 4.44309C25.1084 6.58977 23.3916 9.24331 20.9707 11.2031C20.6151 11.4911 20.4794 11.9719 20.6321 12.4033C20.7847 12.8347 21.1928 13.1231 21.6505 13.1231H31.6245C32.6174 13.1231 33.4251 13.9307 33.4251 14.9237C33.4251 15.9166 32.6176 16.7243 31.6247 16.7243Z" transform="translate(17.286 15.5428)"/>
<path d="M1.08607 -3.29018e-08C0.489468 -3.29018e-08 -9.87052e-07 0.489468 -9.87052e-07 1.08607C-9.87052e-07 1.68268 0.489468 2.17215 1.08607 2.17215C1.68268 2.17215 2.17215 1.68268 2.17215 1.08607C2.17228 0.489602 1.68282 -3.29018e-08 1.08607 -3.29018e-08Z" transform="translate(21.89 42.6272)"/>
<path d="M67.0742 34.5L68.9302 29.5887C69.0653 29.2314 69.0016 28.8294 68.7626 28.5312L65.4799 24.4338L65.7273 19.1894C65.7454 18.808 65.5605 18.4451 65.2413 18.2355L60.8531 15.353L59.468 10.2888C59.3672 9.92032 59.0793 9.63246 58.711 9.53179L53.6468 8.14667L50.7643 3.75856C50.5546 3.4393 50.1918 3.25521 49.8104 3.2726L44.566 3.52003L40.4686 0.237272C40.1705 -0.00153282 39.7685 -0.065277 39.4111 0.0697582L34.4999 1.92575L29.5889 0.069893C29.2313 -0.065277 28.8295 -0.00153284 28.5314 0.237407L24.434 3.52016L19.1896 3.27273C18.8063 3.25467 18.4453 3.43957 18.2357 3.7587L15.3533 8.14694L10.2891 9.53206C9.92067 9.63286 9.63281 9.92072 9.53214 10.289L8.14702 15.3533L3.75878 18.2356C3.43953 18.4453 3.25476 18.8081 3.27282 19.1895L3.52025 24.4339L0.237498 28.5313C-0.00130648 28.8294 -0.0650505 29.2314 0.0699845 29.5888L1.92584 34.5L0.0698497 39.4111C-0.0653201 39.7683 -0.00157601 40.1704 0.237363 40.4686L3.52012 44.566L3.27269 49.8104C3.25463 50.1918 3.43953 50.5547 3.75865 50.7643L8.14688 53.6468L9.532 58.711C9.63281 59.0795 9.92067 59.3673 10.289 59.468L15.3532 60.8531L18.2356 65.2413C18.4453 65.5606 18.8087 65.7442 19.1894 65.7273L24.4338 65.4799L28.5312 68.7626C28.8293 69.0016 29.2315 69.0653 29.5887 68.9302L34.5 67.0742L39.4113 68.9302C39.5352 68.9769 39.6645 68.9998 39.793 68.9998C40.0351 68.9998 40.274 68.9186 40.4686 68.7626L44.566 65.4799L49.8104 65.7273C50.193 65.7443 50.5546 65.5605 50.7643 65.2413L53.6468 60.8531L58.711 59.468C59.0795 59.3672 59.3673 59.0793 59.468 58.711L60.8531 53.6468L65.2413 50.7643C65.5606 50.5546 65.7454 50.1918 65.7273 49.8104L65.4799 44.566L68.7626 40.4686C69.0014 40.1705 69.0652 39.7685 68.9302 39.4111L67.0742 34.5ZM64.9086 34.8819L66.691 39.5985L63.5383 43.5336C63.3738 43.7388 63.2898 43.9972 63.3022 44.26L63.5399 49.2966L59.3257 52.0648C59.1059 52.2091 58.946 52.4289 58.8766 52.6828L57.5464 57.5464L52.6828 58.8766C52.4291 58.946 52.2094 59.1057 52.0648 59.3257L49.2966 63.5399L44.26 63.3022C43.9971 63.2901 43.7388 63.3738 43.5336 63.5383L39.5986 66.691L34.8819 64.9086C34.7589 64.8621 34.6294 64.8389 34.5 64.8389C34.3706 64.8389 34.2411 64.8623 34.1181 64.9086L29.4014 66.691L25.4664 63.5383C25.2612 63.3738 25.0024 63.2901 24.74 63.3022L19.7034 63.5399L16.9352 59.3257C16.7909 59.1059 16.5711 58.946 16.3172 58.8766L11.4536 57.5464L10.1234 52.6828C10.0539 52.429 9.89425 52.2094 9.67432 52.0648L5.46006 49.2966L5.69779 44.26C5.71019 43.997 5.62623 43.7388 5.46168 43.5336L2.30898 39.5985L4.09152 34.8819C4.18451 34.6358 4.18451 34.3641 4.09152 34.118L2.30898 29.4014L5.46168 25.4663C5.62623 25.2611 5.71019 25.0027 5.69779 24.74L5.46006 19.7034L9.67432 16.9351C9.89412 16.7908 10.0539 16.571 10.1234 16.3171L11.4536 11.4535L16.3172 10.1233C16.5709 10.0539 16.7906 9.89417 16.9352 9.67424L19.7034 5.45998L24.74 5.69771C25.0025 5.70997 25.2612 5.62615 25.4664 5.4616L29.4014 2.30889L34.1181 4.09143C34.3643 4.18442 34.6358 4.18442 34.8819 4.09143L39.5986 2.30889L43.5336 5.4616C43.7388 5.62628 43.9973 5.7101 44.26 5.69771L49.2966 5.45998L52.0648 9.67424C52.2091 9.89404 52.4289 10.0539 52.6828 10.1233L57.5464 11.4535L58.8766 16.3171C58.946 16.5709 59.1057 16.7905 59.3257 16.9351L63.5399 19.7034L63.3022 24.74C63.2898 25.0029 63.3738 25.2611 63.5383 25.4663L66.691 29.4014L64.9085 34.118C64.8156 34.3642 64.8156 34.6358 64.9086 34.8819Z"/>
<path d="M3.50543 1.97894C3.23657 1.68623 2.95774 1.39514 2.67622 1.11375C2.39469 0.832358 2.10374 0.553393 1.81102 0.284536C1.37155 -0.118952 0.688159 -0.0898429 0.284537 0.349763C-0.118951 0.789233 -0.0898446 1.47276 0.34976 1.87625C0.619696 2.12422 0.88842 2.38162 1.14825 2.64145C1.40794 2.90115 1.66548 3.17 1.91358 3.44007C2.12664 3.67214 2.41774 3.78979 2.70978 3.78979C2.97082 3.78979 3.23266 3.69572 3.44007 3.5053C3.87967 3.10195 3.90892 2.41841 3.50543 1.97894Z" transform="translate(51.2948 13.866)"/>
<path d="M42.3898 4.30078C37.1798 0.981498 30.907 -0.493646 24.7276 0.146086C18.4576 0.795656 12.5454 3.61253 8.07985 8.07799C3.16536 12.9925 0.304015 19.5211 0.0228939 26.4611C-0.256475 33.3603 2.02861 40.0587 6.45741 45.3221C6.67101 45.576 6.97666 45.7068 7.28473 45.7068C7.53027 45.7068 7.77716 45.6236 7.97972 45.4532C8.43617 45.069 8.49493 44.3875 8.11084 43.931C4.03001 39.081 1.92443 32.9079 2.18184 26.5487C2.44086 20.1524 5.07795 14.1354 9.60755 9.60596C13.7233 5.49008 19.1721 2.89382 24.9501 2.29533C30.6473 1.70506 36.4282 3.06471 41.2286 6.12308C41.732 6.44368 42.3996 6.29571 42.7202 5.7925C43.041 5.28915 42.8929 4.62138 42.3898 4.30078Z" transform="translate(6.87939 6.90161)"/>
<path d="M41.406 0.500076C41.0854 -0.00327344 40.4172 -0.151245 39.9143 0.169362C39.4109 0.489969 39.2631 1.15787 39.5837 1.66095C42.6421 6.46157 44.0014 12.2427 43.4114 17.9396C42.813 23.7175 40.2167 29.1662 36.101 33.2822C31.5714 37.8117 25.5543 40.4489 19.1582 40.7079C12.8001 40.9664 6.62586 38.8599 1.77593 34.7792C1.31947 34.395 0.637966 34.4537 0.25375 34.9103C-0.130467 35.3668 -0.0717089 36.0483 0.384876 36.4325C5.36055 40.619 11.6177 42.8901 18.1154 42.8899C18.4913 42.8899 18.8686 42.8823 19.246 42.867C26.186 42.586 32.7144 39.7247 37.6291 34.8102C42.0947 30.3446 44.9117 24.4323 45.561 18.1623C46.2008 11.9825 44.7253 5.70998 41.406 0.500076Z" transform="translate(16.3425 19.1814)"/>
</svg>
