<svg width="69" height="69" viewBox="0 0 69 69" xmlns="http://www.w3.org/2000/svg">
<path d="M1.36429 2.69531C2.11777 2.69531 2.72858 2.09195 2.72858 1.34766C2.72858 0.603368 2.11777 1.97411e-06 1.36429 1.97411e-06C0.610813 1.97411e-06 0 0.603368 0 1.34766C0 2.09195 0.610813 2.69531 1.36429 2.69531Z" transform="translate(9.58533 53.1503)"/>
<path d="M68.5489 9.16618C67.3693 6.5276 64.2363 5.3286 61.5652 6.49351C61.5584 6.49647 61.5516 6.49957 61.5449 6.50254L52.7441 10.5117C52.0599 10.8234 51.761 11.624 52.0766 12.2999C52.3921 12.9759 53.2024 13.2707 53.8868 12.9594L62.6759 8.95554C63.9689 8.39707 65.4824 8.97859 66.0529 10.2551C66.3298 10.8749 66.3459 11.5639 66.0983 12.1954C65.8507 12.827 65.3687 13.3256 64.7413 13.5992L46.7313 21.4541C43.8821 22.6969 40.6483 22.6247 37.8589 21.2556L31.2662 18.0201C27.749 16.2939 23.6707 16.2028 20.0778 17.7698L19.9641 17.8195L15.051 6.82759L21.8754 3.85116C25.1299 2.4314 28.7618 2.31685 32.1012 3.52839L45.3585 8.33764C46.5592 8.7732 47.1992 10.1002 46.7852 11.2957C46.3632 12.5139 45.0153 13.1693 43.7809 12.7569L33.5288 9.3314C32.815 9.09273 32.0408 9.47116 31.7993 10.1762C31.5578 10.8813 31.9408 11.6461 32.6545 11.8847L42.9065 15.31C43.4454 15.4901 43.9937 15.5755 44.5338 15.5755C46.6553 15.5755 48.6437 14.2561 49.3668 12.1682C50.257 9.5977 48.8809 6.74431 46.2992 5.80768L33.0419 0.998437C29.0351 -0.455145 24.6782 -0.317684 20.7734 1.38535L13.9025 4.382C13.5136 3.79698 12.9545 3.34457 12.2807 3.08677C11.4262 2.75956 10.4943 2.78085 9.65617 3.14647L0.879836 6.97408C0.386782 7.18917 0.0680837 7.67082 0.066583 8.20315L5.66515e-06 31.6448C-0.00135862 32.1137 0.244077 32.5494 0.647907 32.7954C0.866739 32.9289 1.11531 32.9962 1.36443 32.9962C1.5748 32.9962 1.78559 32.9483 1.97959 32.8515L19.1479 24.2843C19.9683 23.9156 20.5982 23.2566 20.9244 22.425C21.1944 21.737 21.2298 20.9978 21.0331 20.2996L21.1799 20.2356C24.0292 18.9928 27.2629 19.0651 30.0523 20.4342L36.645 23.6697C40.1625 25.3959 44.2405 25.4867 47.8334 23.9199L65.8433 16.065C68.5146 14.8998 69.7284 11.805 68.5489 9.16618ZM18.38 21.4513C18.3123 21.6238 18.1807 21.7599 18.0093 21.8347C17.9876 21.8441 2.73486 29.4549 2.73486 29.4549L2.75137 23.6609L6.70317 21.744C7.37958 21.4158 7.65858 20.6083 7.32638 19.9403C6.99431 19.272 6.17669 18.9965 5.50041 19.3245L2.75983 20.6539L2.79271 9.08626L10.7582 5.61214C10.9296 5.53762 11.1202 5.53303 11.2948 5.59988C11.4696 5.66672 11.6075 5.7969 11.6831 5.96617L18.3677 20.9212C18.4433 21.0904 18.4477 21.2788 18.38 21.4513Z" transform="translate(0 36.0038)"/>
<path fill-rule="evenodd" clip-rule="evenodd" d="M4.02344 11.0625V10.7227H7.55078C9.52734 10.7227 11.0625 10.2578 12.1562 9.32812C13.2578 8.39844 13.8086 7.09766 13.8086 5.42578C13.8086 3.79297 13.2461 2.48047 12.1211 1.48828C11.0039 0.496094 9.49219 0 7.58594 0H2.05859C1.50635 0 1.05859 0.447693 1.05859 1V8.34375C0.473877 8.34375 0 8.81769 0 9.40234V9.66406C0 10.2487 0.473877 10.7227 1.05859 10.7227V11.0625H1C0.447754 11.0625 0 11.5102 0 12.0625C0 12.6148 0.447754 13.0625 1 13.0625H1.05859V15.5801C1.05859 16.3988 1.72241 17.0625 2.54102 17.0625C3.35962 17.0625 4.02344 16.3988 4.02344 15.5801V13.0625H6C6.55225 13.0625 7 12.6148 7 12.0625C7 11.5102 6.55225 11.0625 6 11.0625H4.02344ZM7.58594 8.34375H4.02344V2.39062H7.66797C8.65234 2.40625 9.42578 2.69141 9.98828 3.24609C10.5508 3.79297 10.832 4.52734 10.832 5.44922C10.832 6.38672 10.5547 7.10547 10 7.60547C9.44531 8.09766 8.64062 8.34375 7.58594 8.34375Z" transform="translate(44 10.9375)"/>
<path d="M18.5288 0C8.31193 0 -1.33231e-07 8.21073 -1.33231e-07 18.3029C-1.33231e-07 28.3951 8.31207 36.606 18.5288 36.606C28.7457 36.606 37.0576 28.3953 37.0576 18.3031C37.0576 8.21086 28.7457 0 18.5288 0ZM18.5288 33.9105C9.81647 33.9105 2.72858 26.9089 2.72858 18.3029C2.72858 9.69693 9.81647 2.69531 18.5288 2.69531C27.241 2.69531 34.3291 9.69693 34.3291 18.3029C34.3291 26.9089 27.241 33.9105 18.5288 33.9105Z" transform="translate(31.0516)"/>
</svg>
