<svg width="71" height="69" viewBox="0 0 71 69" xmlns="http://www.w3.org/2000/svg">
<path d="M55.9456 51.1845C56.514 46.5211 56.7967 41.8277 56.7922 37.1302C57.9327 36.5006 58.9194 35.6275 59.6813 34.5736C61.8447 31.5352 62.0194 27.1985 60.2188 21.6704C60.1234 21.3848 59.9339 21.1395 59.6813 20.9744L58.781 20.3721C58.9256 15.3727 57.2017 10.4979 53.9434 6.69253C49.9121 2.24869 43.7443 -2.74447e-08 35.5608 -2.74447e-08C27.3773 -2.74447e-08 21.1959 2.30223 17.1781 6.69253C13.9198 10.4979 12.1959 15.3727 12.3406 20.3721L11.4402 20.9744C11.1876 21.1395 10.9981 21.3848 10.9027 21.6704C7.78521 31.2407 11.2656 35.3633 14.2353 37.1034C14.152 41.8226 14.4079 46.5419 15.0012 51.2246C7.69115 54.0757 -0.223609 59.1486 0.00483069 67.6615C0.00483069 68.4007 0.6065 69 1.34859 69H69.652C70.3941 69 70.9958 68.4007 70.9958 67.6615C71.2108 59.1084 63.2154 54.0221 55.9456 51.1845ZM14.2786 33.7729C11.6032 31.0947 12.1136 26.6179 13.2678 22.8885L14.41 22.1255C14.8227 21.8511 15.0499 21.3726 15.0012 20.8807C14.7466 16.3547 16.2257 11.901 19.14 8.4192C22.6203 4.61785 28.1298 2.65024 35.4936 2.62347C42.8574 2.5967 48.3668 4.61785 51.8606 8.45936C54.7749 11.9411 56.254 16.3949 55.9994 20.9209C55.9507 21.4128 56.1779 21.8913 56.5906 22.1657L57.7463 22.9286C59.09 27.3858 59.0228 30.7723 57.4372 33.0076C57.2183 33.3116 56.9709 33.5938 56.6981 33.8508C56.2278 23.6916 53.8359 16.0755 49.509 11.1631C47.5784 8.95544 45.1393 7.24684 42.4005 6.1839H42.2796C39.8143 5.25414 37.2023 4.7691 34.5664 4.7517C29.6462 4.55075 24.899 6.57809 21.6528 10.2663C16.5301 16.037 14.74 25.4333 14.2786 33.7729ZM45.6121 46.1115L45.6255 46.058C46.5133 44.9725 47.2459 43.7698 47.8024 42.4842C48.1385 41.6958 48.4081 40.881 48.6087 40.0481L52.1697 38.549C52.8279 38.4882 53.4797 38.372 54.1181 38.201C54.0677 42.2272 53.8077 46.2481 53.3387 50.2475C50.8229 49.4103 48.2554 48.7352 45.6524 48.2264V46.3257C45.6452 46.2533 45.6318 46.1816 45.6121 46.1115ZM39.807 42.2834C39.807 43.1113 39.1333 43.7825 38.302 43.7825C37.4709 43.7825 36.797 43.1113 36.797 42.2834C36.797 41.4555 37.4709 40.7843 38.302 40.7843C39.1332 40.7985 39.7953 41.4811 39.7808 42.309C39.7807 42.3184 39.7805 42.3276 39.7802 42.337L39.807 42.2834ZM38.2886 38.1608L38.302 38.1073C35.9866 38.0919 34.0971 39.9492 34.0818 42.2555C34.0665 44.5617 35.931 46.444 38.2463 46.4592C40.4474 46.4738 42.2849 44.7904 42.4543 42.6045L45.3433 41.3864C42.9783 46.9145 37.2001 49.0293 35.5204 49.538C28.1566 45.5224 24.3404 41.5069 24.4882 37.5985C24.73 31.361 34.7545 26.8904 35.8967 26.355C38.274 25.409 40.379 23.8915 42.0243 21.938C45.4777 28.2155 46.8618 33.6231 46.2034 38.1071L41.7689 39.9676C40.981 38.8284 39.6775 38.1516 38.2886 38.1608ZM16.9094 35.9389L16.9631 35.8987C17.2184 27.5197 18.71 17.6415 23.6819 11.9662C26.3948 8.84585 30.4012 7.14695 34.5395 7.36178C36.5222 7.37718 38.492 7.68386 40.3849 8.27197C40.3266 9.52648 40.4904 10.7815 40.8686 11.9796C41.4464 14.2016 42.0377 16.4904 40.8686 18.6722C40.8686 18.6722 40.8686 18.6722 40.8686 18.7659C40.8438 18.8092 40.8213 18.8539 40.8014 18.8997C40.8014 19.0202 39.7802 21.7775 34.8486 23.9057C32.7254 24.8159 22.1231 29.7818 21.8275 37.4916C21.72 40.2757 22.9697 42.9928 25.5363 45.6431C25.429 45.8313 25.369 46.0424 25.3616 46.2588V48.1461C22.7122 48.6621 20.0998 49.3507 17.5409 50.2074C17.0278 45.7379 16.8123 41.2397 16.8959 36.742C16.9828 36.482 16.9875 36.2016 16.9094 35.9389ZM51.8606 35.8452C51.6941 35.8507 51.53 35.887 51.3768 35.9523L49.0924 36.916C49.3074 31.8832 47.4799 25.967 43.5561 19.2879C44.4783 16.6897 44.4783 13.855 43.5561 11.2568C43.3815 10.6144 43.2202 9.91833 43.1261 9.39631C44.7949 10.2807 46.2883 11.46 47.5337 12.8764C51.659 17.5746 53.8762 25.1104 54.1315 35.3633C53.3997 35.625 52.6358 35.7871 51.8606 35.8452ZM34.1498 66.2828H2.73267C3.79424 56.2307 20.2016 52.0277 25.3347 50.9436V53.2859C25.3347 56.3243 29.0435 58.64 34.1498 59.0281V66.2828ZM28.0223 53.2993V47.9453C30.1293 49.558 32.3779 50.978 34.7411 52.1884C34.9352 52.2928 35.1521 52.3478 35.3726 52.349H35.6683C38.3269 51.6397 40.8135 50.4013 42.9783 48.7082V53.3261C42.9783 54.5977 40.0624 56.4314 35.507 56.4314C30.9517 56.4314 28.0223 54.5307 28.0223 53.2993ZM36.8373 66.2828V59.0415C41.9436 58.6935 45.6524 56.3645 45.6524 53.2993V50.9569C50.8259 52.0277 67.1526 56.2173 68.2545 66.2962L36.8373 66.2828Z"/>
</svg>
