<svg width="72" height="69" viewBox="0 0 72 69" xmlns="http://www.w3.org/2000/svg">
<path d="M70.4374 31.2708C71.8547 29.8892 72.355 27.8616 71.7437 25.9768C71.1309 24.0919 69.5349 22.7464 67.5742 22.4609L50.1406 19.9271C49.3981 19.819 48.7565 19.3531 48.4249 18.6797L40.6309 2.87846C39.7557 1.10322 37.9795 7.28912e-08 36 7.28912e-08C34.0219 7.28912e-08 32.2457 1.10322 31.3706 2.87846L23.5751 18.6797C23.2435 19.3531 22.6004 19.819 21.858 19.9271L4.42441 22.4623C2.46508 22.7464 0.869071 24.0919 0.256331 25.9768C-0.354968 27.8616 0.145317 29.8892 1.56255 31.2708L14.1763 43.5691C14.7141 44.094 14.9607 44.8497 14.8338 45.5881L11.8566 62.9554C11.5221 64.9066 12.3079 66.8405 13.9096 68.0057C15.51 69.1724 17.5933 69.3238 19.3479 68.3994L34.9389 60.1995C35.6035 59.8505 36.3965 59.8505 37.0611 60.1995L52.6536 68.3994C53.4148 68.8003 54.2395 68.9979 55.0598 68.9979C56.1253 68.9979 57.1864 68.6647 58.0918 68.0057C59.6936 66.8405 60.4793 64.9066 60.1449 62.9554L57.1662 45.5895C57.0393 44.8497 57.2859 44.0955 57.8236 43.5705L70.4374 31.2708ZM54.326 46.0769L57.3032 63.4429C57.4531 64.3168 57.1143 65.1518 56.3963 65.6738C55.6769 66.1944 54.7816 66.2579 53.9958 65.8483L38.4034 57.647C37.6522 57.2533 36.8247 57.0543 36 57.0543C35.1753 57.0543 34.3492 57.2533 33.5966 57.6484L18.0071 65.8483C17.2184 66.2579 16.3231 66.1944 15.6051 65.6738C14.8871 65.1518 14.5498 64.3182 14.6983 63.4429L17.6755 46.0769C17.9624 44.4012 17.4073 42.6909 16.1905 41.5054L3.57522 29.2057C2.93941 28.5856 2.72315 27.7116 2.99852 26.868C3.27246 26.0229 3.96017 25.4432 4.83819 25.3148L22.2703 22.781C23.9528 22.5373 25.4075 21.4817 26.1587 19.956L33.9542 4.15473C34.3463 3.35868 35.1119 2.88422 35.9986 2.88422C36.8867 2.88422 37.6508 3.35868 38.0444 4.15473L45.8399 19.956C46.591 21.4817 48.0443 22.5373 49.7268 22.781L67.1604 25.3148C68.0384 25.4432 68.7261 26.0229 69 26.868C69.274 27.7116 69.0591 28.5856 68.4233 29.2057L55.8095 41.504C54.5927 42.6909 54.0376 44.3998 54.326 46.0769Z"/>
<path d="M1.37485 8.81125C0.889345 8.69113 0.56725 8.23079 0.620771 7.73351L1.35701 0.892989C1.41168 0.385058 1.84041 0 2.35127 0H9.38672C10.0663 0 10.6172 0.5509 10.6172 1.23047C10.6172 1.91004 10.0663 2.46094 9.38672 2.46094H3.82031L3.35156 6.53906C4.14062 6.08594 5.03125 5.85938 6.02344 5.85938C7.64844 5.85938 8.91016 6.37891 9.80859 7.41797C10.7148 8.45703 11.168 9.85547 11.168 11.6133C11.168 13.3477 10.668 14.7305 9.66797 15.7617C8.66797 16.7852 7.29688 17.2969 5.55469 17.2969C3.99219 17.2969 2.69531 16.8555 1.66406 15.9727C0.899335 15.3072 0.396325 14.4846 0.155031 13.5051C0.017383 12.9463 0.48539 12.457 1.06089 12.457H1.8773C2.37897 12.457 2.78402 12.837 2.95616 13.3082C3.11241 13.7359 3.34186 14.0889 3.64453 14.3672C4.12891 14.8047 4.76172 15.0234 5.54297 15.0234C6.41797 15.0234 7.09766 14.7109 7.58203 14.0859C8.07422 13.4609 8.32031 12.6094 8.32031 11.5312C8.32031 10.4922 8.05078 9.67188 7.51172 9.07031C6.97266 8.46094 6.23047 8.15625 5.28516 8.15625C4.76953 8.15625 4.33203 8.22656 3.97266 8.36719C3.73375 8.45548 3.48103 8.60247 3.2145 8.80815C2.94514 9.01602 2.60114 9.11467 2.27086 9.03295L1.37485 8.81125Z" transform="translate(30.6914 28.9375)"/>
<path fill-rule="evenodd" clip-rule="evenodd" d="M17.5 32C25.5081 32 32 25.5081 32 17.5C32 9.49187 25.5081 3 17.5 3C9.49187 3 3 9.49187 3 17.5C3 25.5081 9.49187 32 17.5 32ZM17.5 35C27.165 35 35 27.165 35 17.5C35 7.83502 27.165 0 17.5 0C7.83502 0 0 7.83502 0 17.5C0 27.165 7.83502 35 17.5 35Z" transform="translate(19 20)"/>
</svg>
