<svg width="16294.26" height="3241.02" viewBox="0 0 16294.26 3241.02" xmlns="http://www.w3.org/2000/svg">
<path class="fil0" d="M6918.67 1416.3l363.4 0 0 -145.36c423.03,0 661.56,-249.71 661.56,-585.16 0,-331.71 -242.26,-570.24 -661.56,-570.24l0 -115.54 -363.4 0 0 115.54c-419.3,0 -661.57,238.53 -661.57,570.24 0,335.45 238.54,585.16 661.57,585.16l0 145.36zm0 -465.89c-171.45,0 -290.72,-91.31 -290.72,-259.03 0,-162.14 119.28,-255.31 290.72,-255.31l0 514.34zm363.4 0l0 -514.34c171.45,0 290.71,93.18 290.71,255.31 0,167.73 -119.27,259.03 -290.71,259.03zm721.2 409.99l380.17 0 93.19 -232.94 503.16 0 95.04 232.94 387.62 0 -555.35 -1313.82 -348.49 0 -555.34 1313.82zm579.57 -514.34l147.21 -370.85 145.37 370.85 -292.58 0zm1006.32 514.34l631.74 0c307.49,0 505.03,-156.54 505.03,-426.76 0,-281.4 -221.77,-419.31 -523.67,-419.31l-251.59 0 0 -150.95 687.66 0 0 -307.48 -1049.18 0 0 1304.5zm361.52 -303.76l0 -270.22 244.13 0c106.23,0 169.58,52.18 169.58,132.31 0,89.45 -63.35,137.91 -171.45,137.91l-242.27 0zm942.97 303.76l361.52 0 0 -372.71 178.91 0c324.26,0 560.94,-162.14 560.94,-469.62 0,-292.58 -212.45,-462.17 -542.3,-462.17l-559.07 0 0 1304.5zm361.52 -655.98l0 -344.76 169.59 0c130.46,0 208.72,59.64 208.72,171.45 0,106.23 -78.26,173.31 -206.86,173.31l-171.45 0zm892.66 655.98l337.31 0 505.02 -734.25 0 734.25 357.81 0 0 -1304.5 -337.31 0 -505.03 734.25 0 -734.25 -357.8 0 0 1304.5zm1431.22 0l361.52 0 0 -337.32 132.32 -147.21 327.97 484.53 434.22 0 -510.61 -743.56 493.84 -560.94 -428.62 0 -449.13 529.25 0 -529.25 -361.52 0 0 1304.5zm1256.02 0l380.18 0 93.18 -232.94 503.17 0 95.04 232.94 387.62 0 -555.35 -1313.82 -348.49 0 -555.35 1313.82zm579.57 -514.34l147.22 -370.85 145.36 370.85 -292.58 0zm-9090.45 2392.82l361.52 0 0 -987.69 445.4 0 0 987.69 361.52 0 0 -1304.49 -1168.45 0 0 1304.49zm1399.53 0l1058.5 0 0 -307.49 -700.71 0 0 -206.85 626.17 0 0 -285.12 -626.17 0 0 -197.54 691.38 0 0 -307.48 -1049.18 0 0 1304.49zm1975.38 0l361.52 0 0 -1304.49 -361.52 0 0 527.38c-57.77,46.59 -141.63,70.82 -229.22,70.82 -128.59,0 -178.9,-65.22 -178.9,-204.99l0 -393.21 -361.53 0 0 495.7c0,273.95 162.14,436.08 436.07,436.08 113.69,0 247.85,-33.55 333.58,-83.86l0 456.57zm488.24 0l380.18 0 93.18 -232.94 503.17 0 95.04 232.94 387.62 0 -555.35 -1313.81 -348.49 0 -555.35 1313.81zm579.57 -514.34l147.22 -370.84 145.36 370.84 -292.58 0zm1325 514.34l361.52 0 0 -987.69 391.35 0 0 -316.81 -1144.22 0 0 316.81 391.36 0 0 987.69zm911.28 0l337.3 0 505.03 -734.24 0 734.24 357.81 0 0 -1304.49 -337.31 0 -505.03 734.24 0 -734.24 -357.8 0 0 1304.49z"/>
  <path class="fil1" d="M-0 3241.02l0 -1810.17c305.55,-464.47 604.98,-918.73 910.61,-1383.15 1460.07,0 2920.12,0 4380.19,0l0 1810.17c-305.55,464.47 -604.98,918.74 -910.61,1383.15 -1460.07,0 -2920.12,0 -4380.19,0zm2777.4 -2928.76l0 2664.24 1341.22 0 -0.06 -1463.27c302.55,0.03 605.12,-0.29 907.67,-0.04l0 -1200.93 -2248.82 0zm2242.76 1475.25l-636.35 -1.33 -0.09 971.34 636.45 -970.01zm-3847.98 -1475.28l0.06 1463.26c-302.55,-0.03 -605.12,0.29 -907.67,0.05l0 1200.93 2248.26 0 0 -2664.24 -1340.65 0zm-901.54 1188.98l636.35 1.34 0.09 -971.34 -636.45 970z"/>
</svg>
