<svg width="150" height="53" viewBox="0 0 150 53" xmlns="http://www.w3.org/2000/svg">
<path d="M24.202 51.5992C23.6199 52.0138 22.9941 52.3139 22.2955 52.4997C21.6115 52.6855 20.9857 52.7713 20.4036 52.7713C19.6614 52.7713 18.8901 52.657 18.0896 52.4283C17.3038 52.1853 16.5325 51.8136 15.7902 51.2848C15.6884 52.0138 15.4701 52.4854 15.1208 52.6998C14.7715 52.8999 14.3931 53 13.9711 53C13.7091 53 13.4181 52.9714 13.0979 52.8857C12.7777 52.8142 12.4867 52.6998 12.2247 52.5426C12.4284 52.2853 12.5449 51.9423 12.5449 51.5278C12.4867 50.9989 12.2684 50.6273 11.8609 50.3986C11.4679 50.1556 11.0604 50.0413 10.6384 50.0413C10.3764 50.0413 10.0708 50.127 9.72155 50.2843C9.37227 50.4415 9.21219 50.7131 9.21219 51.1419C9.21219 51.3991 9.32861 51.585 9.56146 51.7136C9.80887 51.8565 9.99806 51.9709 10.1581 52.0709C10.0563 52.3282 9.80887 52.5426 9.44504 52.6998C9.08121 52.8571 8.76104 52.9285 8.49908 52.9285C8.06248 52.9285 7.65499 52.8428 7.26206 52.657C6.86912 52.4711 6.59261 52.0995 6.43252 51.5278C6.21422 51.685 5.95227 51.8422 5.63209 51.9995C5.31192 52.1424 4.91899 52.2282 4.43873 52.2282C3.65286 52.2282 3.07073 51.9995 2.69235 51.5707C2.32851 51.1276 1.84826 50.856 1.26613 50.7416C0.945959 50.7416 0.640342 50.8989 0.320171 51.2133C0.218298 50.956 0.130979 50.6559 0.0727661 50.3128C0.0291064 49.9841 0 49.7125 0 49.4981C0 48.9835 0.160085 48.5262 0.480256 48.1402C0.800427 47.74 1.26613 47.5256 1.90647 47.4684C1.90647 46.8967 2.06656 46.3964 2.38673 45.9533C2.69235 45.5102 3.20171 45.2958 3.88571 45.2958C4.52605 45.2958 5.03541 45.4388 5.4429 45.7532C5.83584 46.0677 6.11235 46.4393 6.27244 46.8538C6.17056 46.9539 6.08324 47.0254 6.02503 47.0825C5.98137 47.1397 5.95227 47.2398 5.95227 47.397C5.95227 47.5971 6.05414 47.7114 6.27244 47.7114C6.37431 47.7114 6.75269 47.497 7.37848 47.0825C8.01882 46.668 8.93567 46.4536 10.1581 46.4536C10.2164 45.6818 10.4638 45.0957 10.9149 44.7098C11.3661 44.3096 11.8754 44.1238 12.4576 44.1238C13.5199 44.1238 14.4513 44.6098 15.2372 45.596C14.7133 45.7532 14.4513 46.0677 14.4513 46.5394C14.4513 46.8967 14.6551 47.0825 15.0771 47.0825C15.3391 47.0825 15.6302 46.9968 15.9503 46.8109C16.2705 46.6251 16.5616 46.4393 16.8235 46.2249C17.2456 46.7967 17.8131 47.4256 18.5262 48.0974C19.2539 48.7691 19.967 49.1122 20.7092 49.1122C20.8257 49.1122 21.0003 49.0836 21.2768 49.0264C21.5388 48.9835 21.6697 48.8263 21.6697 48.569C21.6697 48.4118 21.5824 48.2975 21.4223 48.2546C21.2768 48.1974 21.1167 48.1688 20.9566 48.1688H20.7092C20.7092 47.4399 20.8693 46.8109 21.1895 46.2678C21.5097 45.7246 22.0918 45.4388 22.9359 45.4388C23.78 45.4388 24.4494 45.7104 24.9151 46.2249C25.3954 46.7395 25.6428 47.4399 25.6428 48.3261C26.3704 48.6977 26.938 48.8692 27.3018 48.8692C27.6802 48.8692 27.9276 48.7834 28.0586 48.5976C28.1896 48.4261 28.2478 48.2546 28.2478 48.0974C28.2478 47.883 28.1023 47.6257 27.7821 47.3112C28.044 46.7395 28.5971 46.4536 29.4412 46.4536C30.0815 46.4536 30.5909 46.7252 30.9984 47.2398C31.3913 47.7543 31.595 48.4118 31.595 49.1837C31.595 50.4844 31.173 51.3563 30.358 51.7994C29.543 52.2424 28.7572 52.4569 28.0149 52.4569C27.2727 52.4569 26.6033 52.414 25.992 52.2996C25.3808 52.1996 24.7841 51.9709 24.202 51.5992ZM16.6634 34.147C17.2019 34.147 17.5075 33.9469 17.6239 33.5609C17.7258 33.175 17.784 32.4746 17.784 31.4884V19.0245H15.3245V34.147H16.6634ZM17.4639 41.6224H5.8795L0.873193 36.9485V34.147H2.38673C2.75056 34.147 3.15805 34.0183 3.6092 33.7468C4.06035 33.4895 4.27865 33.0035 4.27865 32.2745V17.6238L0.873193 14.4221V11.5348H27.4619L31.1148 14.808V18.6243H30.5618C29.7613 18.6243 29.2811 18.9388 29.121 19.5677C28.9755 20.1823 28.8881 20.8684 28.8881 21.5974V33.6038C28.8881 34.3757 29.0482 35.0332 29.3684 35.5906C29.6886 36.1338 30.2707 36.4339 31.1148 36.4768V41.6224H18.6572L17.4639 40.4504V41.6224ZM14.5969 1.17206C15.0335 1.07201 15.441 0.971953 15.8339 0.900485C16.2268 0.814725 16.6634 0.786138 17.1437 0.786138C18.046 0.786138 18.9192 0.900485 19.7633 1.12918C20.6074 1.35787 21.2768 1.65804 21.7425 2.02967C21.7425 1.50081 21.9026 1.07201 22.2228 0.700378C22.5429 0.343042 23.0668 0.157228 23.8091 0.157228C24.2893 0.157228 24.7405 0.285868 25.1625 0.54315C24.9442 0.957659 24.8423 1.32929 24.8423 1.64374C24.8423 2.21548 25.1043 2.6014 25.6428 2.80151C26.1667 3.01591 26.6469 3.11597 27.069 3.11597C28.2332 3.11597 29.0191 2.51564 29.4412 1.32929C30.0815 1.42934 30.5909 1.64374 30.9984 1.98679C31.3913 2.32983 31.595 2.85868 31.595 3.58765C31.595 4.63107 31.2167 5.37433 30.4744 5.84601C29.7322 6.31769 28.859 6.54639 27.8549 6.54639C27.2727 6.54639 26.6615 6.48921 26.0357 6.38916C25.3954 6.2891 24.7841 6.0747 24.202 5.77454V6.23193C24.202 6.9609 23.9546 7.48975 23.4598 7.78991C22.9504 8.10437 22.412 8.2616 21.8298 8.2616C20.9275 8.2616 20.1271 7.94714 19.4431 7.33252C19.8215 6.70361 19.9961 6.20334 19.9961 5.84601C19.9961 5.33145 19.8069 4.88835 19.3994 4.51672C19.0065 4.15939 18.3807 3.97357 17.5366 3.97357C16.9108 3.97357 16.3724 4.10221 15.9503 4.35949C15.5283 4.63107 15.3245 4.9884 15.3245 5.46009C15.3245 5.77454 15.4992 6.23193 15.8776 6.86084C15.4555 6.64644 14.9898 6.48921 14.4805 6.34628C13.9856 6.21764 13.4326 6.16046 12.8505 6.16046C11.9627 6.16046 11.0896 6.34628 10.2455 6.74649C9.38682 7.13242 8.73193 7.8185 8.25167 8.80475C7.77142 8.23301 7.11652 7.56122 6.27244 6.77508C5.42835 6.00324 4.56971 5.61731 3.72562 5.61731C3.62375 5.61731 3.42001 5.63161 3.12894 5.6459C2.83788 5.67449 2.69235 5.78884 2.69235 6.00324C2.69235 6.10329 2.80877 6.26052 3.01252 6.47492C3.23081 6.67503 3.3909 6.80367 3.49277 6.86084C3.1726 7.48975 2.67779 7.78991 1.97924 7.78991C1.45532 7.78991 0.989619 7.58981 0.596682 7.1753C0.203745 6.76079 0 6.16046 0 5.37433C0 4.23085 0.40749 3.38754 1.23702 2.84439C2.052 2.30124 2.91064 2.02967 3.81294 2.02967C4.59882 2.02967 5.29737 2.1726 5.8795 2.45847C6.46163 2.74434 6.98554 3.08738 7.4658 3.50189C7.72776 3.40183 7.85874 3.14455 7.85874 2.73004C7.85874 2.57282 7.80052 2.37271 7.69865 2.14401C7.59678 1.91532 7.40759 1.71521 7.14563 1.55798C7.40759 1.0863 7.82963 0.857605 8.41176 0.857605C8.8338 0.857605 9.22674 0.957659 9.56146 1.17206C9.91074 1.37217 10.1873 1.68662 10.391 2.10113C10.6093 1.78668 10.9004 1.55798 11.2642 1.40076C11.7008 1.20065 12.021 1.02913 12.2684 0.900485C12.5012 0.771845 12.6759 0.471683 12.7777 0C13.1998 0 13.5782 0.0714671 13.9274 0.228695C14.2767 0.385922 14.495 0.700378 14.5969 1.17206ZM24.0419 50.6702C24.7405 51.0847 25.3808 51.3706 25.992 51.5278C26.6033 51.685 27.2 51.7565 27.7821 51.7565C28.5243 51.7565 29.2083 51.5707 29.8486 51.1704C30.4744 50.7845 30.7946 50.1699 30.7946 49.3409C30.7946 48.8263 30.6782 48.3832 30.4308 48.0116C30.1979 47.6543 29.8632 47.4684 29.4412 47.4684C29.3393 47.4684 29.2229 47.497 29.0919 47.5542C28.9609 47.5971 28.8299 47.6543 28.7281 47.7114C28.8299 47.8687 28.9463 48.0116 29.0482 48.1402C29.1501 48.2689 29.2083 48.4404 29.2083 48.6405C29.2083 49.0121 29.0191 49.3123 28.6553 49.5839C28.2769 49.8412 27.884 49.9698 27.4619 49.9698C26.3559 49.9698 25.4536 49.5839 24.7696 48.7977C24.7696 48.1688 24.624 47.64 24.333 47.1969C24.0419 46.7538 23.5762 46.5394 22.9359 46.5394C22.5138 46.5394 22.1791 46.6537 21.9463 46.8824C21.7134 47.1254 21.5388 47.3684 21.4223 47.6257C21.6988 47.6257 22.0045 47.6971 22.3392 47.8258C22.6885 47.9544 22.8631 48.226 22.8631 48.6405C22.8631 49.2122 22.6157 49.6125 22.15 49.8554C21.6697 50.0841 21.1604 50.1985 20.6365 50.1985C19.836 50.1985 19.0793 49.9269 18.3371 49.3838C17.5948 48.8406 16.9836 48.2546 16.5033 47.6257C15.8193 48.0402 15.2081 48.2546 14.6842 48.2546C14.3058 48.2546 14.0147 48.1259 13.7673 47.8687C13.5345 47.5971 13.4181 47.2969 13.4181 46.9253C13.4181 46.5108 13.5927 46.1535 13.9711 45.839C13.811 45.6818 13.6073 45.5388 13.3744 45.4102C13.1416 45.2816 12.8505 45.2101 12.5449 45.2101C12.0646 45.2101 11.7008 45.3959 11.4243 45.7532C11.1623 46.1249 11.0313 46.5394 11.0313 47.0111C11.0313 47.3684 11.1187 47.7114 11.2642 48.0116C10.5802 47.7543 9.9544 47.6257 9.37227 47.6257C8.73193 47.6257 8.10614 47.8544 7.49491 48.2975C6.89822 48.7263 6.30154 48.955 5.71941 48.955C5.13729 48.955 4.84622 48.7263 4.84622 48.2546C4.84622 47.9401 5.02086 47.6543 5.39924 47.397C5.02086 46.7252 4.52605 46.3821 3.88571 46.3821C3.46367 46.3821 3.14349 46.5108 2.93975 46.7681C2.72145 47.0254 2.61958 47.3112 2.61958 47.6257C2.61958 48.1974 2.83788 48.6977 3.28903 49.1122C3.74018 49.5267 4.20588 49.8126 4.68614 49.9698C4.56971 50.0127 4.36596 50.0413 4.04579 50.0413C3.78384 50.0413 3.56554 49.9698 3.37635 49.8126C3.18715 49.6553 3.01252 49.4838 2.85243 49.298C2.69235 49.1265 2.53226 48.9407 2.34307 48.7549C2.15388 48.5833 1.93558 48.4833 1.67362 48.4833C1.39711 48.4833 1.1497 48.6119 0.916853 48.8692C0.669448 49.1408 0.553022 49.4981 0.553022 49.9698C0.553022 50.127 0.582129 50.2557 0.640342 50.3557C0.844087 50.1985 1.03328 50.127 1.19336 50.127C1.45532 50.127 1.68817 50.1985 1.90647 50.3557C2.11022 50.5129 2.34307 50.6702 2.57592 50.8274C2.82332 50.9846 3.09984 51.1419 3.42001 51.2848C3.72562 51.442 4.10401 51.5278 4.52605 51.5278C5.10818 51.5278 5.63209 51.3563 6.11235 51.0132C6.59261 50.6845 7.01465 50.2985 7.37848 49.884L7.4658 49.9698C7.14563 50.3843 6.98554 50.7416 6.98554 51.0561C6.98554 51.4706 7.13108 51.7851 7.42214 51.9995C7.7132 52.1996 8.04793 52.2996 8.41176 52.2996C8.63006 52.2996 8.8338 52.2567 9.0521 52.1424C8.57185 51.9423 8.33899 51.5707 8.33899 51.0561C8.33899 50.4844 8.57185 50.0841 9.0521 49.8554C9.5178 49.6125 10.0563 49.4981 10.6384 49.4981C11.2642 49.4981 11.8463 49.6982 12.3848 50.0841C12.9087 50.4701 13.1707 51.1561 13.1707 52.1424C13.3307 52.2567 13.5927 52.2996 13.9711 52.2996C14.233 52.2996 14.5096 52.2139 14.8006 52.028C15.0917 51.8565 15.2663 51.5564 15.3245 51.1419C15.3245 50.613 15.2372 50.127 15.0771 49.6553C15.8193 50.3843 16.5907 50.956 17.3765 51.3706C18.177 51.7851 19.1811 51.9995 20.4036 51.9995C20.9857 51.9995 21.6115 51.8851 22.2955 51.685C22.9941 51.4706 23.5762 51.1419 24.0419 50.6702ZM1.42622 38.5065V46.8538L0.713108 47.154V37.8061L1.42622 38.5065ZM0.713108 15.3511L1.42622 15.98V33.5181H0.713108V15.3511ZM0.713108 7.94714L1.42622 8.34736V10.8344H0.713108V7.94714ZM16.1977 33.3608V19.7249H16.9836V33.3608H16.1977ZM18.5699 14.0361V32.1173C18.5699 33.1607 18.3807 33.8897 18.0169 34.3042C17.6531 34.7187 17.0418 34.9188 16.1977 34.9188H15.6302V36.634H27.069V34.9188H26.516C25.4536 34.9188 24.7259 34.7187 24.333 34.3042C23.9255 33.8897 23.7363 33.1607 23.7363 32.1173V16.609C23.7363 15.6656 23.9546 15.0081 24.4057 14.6222C24.8569 14.222 25.4972 14.0361 26.3559 14.0361H27.069V12.3209H1.67362V14.0361H2.69235C3.43456 14.079 4.01669 14.2934 4.43873 14.6508C4.86077 15.0224 5.07907 15.5655 5.07907 16.2945V32.5032C5.07907 33.2894 4.84622 33.8897 4.36596 34.3042C3.88571 34.7187 3.30358 34.9188 2.61958 34.9188H1.67362V36.634H13.1707V34.9188H12.6176C11.9336 34.9188 11.3661 34.7187 10.9149 34.3042C10.4638 33.8897 10.2455 33.2894 10.2455 32.5032V14.0361H18.5699ZM14.1312 2.18689C14.1312 1.40076 13.811 0.929072 13.1707 0.786138C12.9669 1.24353 12.7486 1.55798 12.5449 1.71521C12.3266 1.87244 11.9773 2.02967 11.5116 2.18689C10.9295 2.387 10.4492 2.8301 10.0854 3.50189C10.0854 2.93015 9.9544 2.48706 9.67789 2.14401C9.41593 1.80097 9.08121 1.64374 8.64461 1.64374C8.38265 1.64374 8.20801 1.68662 8.09159 1.78668C8.41176 2.10113 8.57185 2.47276 8.57185 2.88727C8.57185 3.24461 8.45542 3.57335 8.20801 3.85922C7.97516 4.14509 7.77142 4.3452 7.62589 4.44525C7.14563 4.03074 6.57805 3.64482 5.90861 3.31607C5.25371 2.97303 4.55516 2.80151 3.81294 2.80151C3.07073 2.80151 2.35762 3.00162 1.67362 3.38754C0.975066 3.77346 0.640342 4.44525 0.640342 5.37433C0.640342 5.90318 0.77132 6.2891 1.03328 6.54639C1.29524 6.80367 1.55719 6.93231 1.81915 6.93231C2.03745 6.93231 2.22664 6.86084 2.38673 6.70361C2.22664 6.60356 2.06656 6.48921 1.90647 6.34628C1.74639 6.21764 1.67362 6.03182 1.67362 5.77454C1.71728 5.34574 1.96468 5.05987 2.38673 4.91694C2.80877 4.75971 3.27447 4.67395 3.81294 4.67395C4.7589 4.67395 5.60299 4.9884 6.3452 5.61731C7.08742 6.23193 7.64044 6.77508 8.01882 7.24676C8.38265 6.67503 8.97933 6.17476 9.80887 5.73166C10.6238 5.28857 11.4825 5.05987 12.3848 5.05987C13.127 5.05987 13.7819 5.2171 14.364 5.53155C14.2039 5.2171 14.1312 4.93123 14.1312 4.67395C14.1312 4.10221 14.4368 3.67341 15.0335 3.38754C15.6447 3.10167 16.4015 2.95874 17.3038 2.95874C18.2497 2.95874 19.1229 3.18743 19.9234 3.63053C20.7092 4.05933 21.1313 4.73112 21.1895 5.61731C21.1895 5.8746 21.1604 6.11758 21.1167 6.34628C21.0585 6.58927 20.9857 6.83225 20.8693 7.08954C21.0876 7.20388 21.3205 7.24676 21.5824 7.24676C22.0045 7.24676 22.412 7.08954 22.7758 6.77508C23.1542 6.47492 23.3288 6.00324 23.3288 5.37433C23.3288 4.95982 23.256 4.54531 23.096 4.1308C23.6781 4.60248 24.3475 4.94552 25.1189 5.18851C25.8902 5.41721 26.6469 5.53155 27.3892 5.53155C27.9713 5.53155 28.6698 5.40291 29.4848 5.14563C30.2998 4.88835 30.7364 4.31661 30.7946 3.43042C30.7946 2.70146 30.4453 2.25836 29.7613 2.10113C29.3393 3.24461 28.437 3.81634 27.069 3.81634C26.3268 3.81634 25.6428 3.63053 25.0461 3.23031C24.4349 2.84439 24.1292 2.28695 24.1292 1.55798C24.1292 1.24353 24.1583 1.01483 24.202 0.857605C23.4598 0.857605 22.965 0.986246 22.703 1.24353C22.4411 1.50081 22.2955 1.90102 22.2955 2.41559C22.2955 2.51564 22.3537 2.78722 22.4556 3.20173C21.8735 2.78722 21.1313 2.387 20.1999 2.02967C19.2685 1.65804 18.2497 1.48652 17.1437 1.48652C16.5616 1.48652 16.0085 1.5294 15.4701 1.64374C14.9462 1.7438 14.495 1.92961 14.1312 2.18689ZM28.0149 7.24676L28.7281 7.1753V11.692L28.0149 11.0631V7.24676ZM28.7281 42.4086V45.9962L28.0149 46.2249V42.4086H28.7281ZM30.1543 6.77508L30.8674 6.47492V13.7931L30.1543 13.0213V6.77508ZM30.8674 42.3228V46.2249L30.1543 45.9105V42.3228H30.8674ZM3.42001 40.3789V44.5812L2.69235 44.8956V39.6785L3.42001 40.3789ZM2.69235 17.1521L3.42001 17.8525V33.0464L2.69235 33.4466V17.1521ZM2.69235 10.8344V8.34736L3.42001 7.94714V10.8344H2.69235ZM5.55933 42.3228V44.8242L4.84622 44.5812V41.7082L5.55933 42.3228ZM4.84622 10.8344V6.77508L5.55933 7.24676V10.8344H4.84622ZM7.62589 42.2513V46.0677L6.89822 46.3821V42.2513H7.62589ZM6.89822 10.8344V8.41882L7.62589 9.1192V10.8344H6.89822ZM9.67789 42.2513V45.596L8.96478 45.7532V42.2513H9.67789ZM8.96478 10.8344V9.1192L9.67789 8.2616V10.8344H8.96478ZM11.8318 42.2513V43.4949L11.1187 43.7236V42.2513H11.8318ZM11.1187 10.8344V7.48975L11.8318 7.1753V10.8344H11.1187ZM13.9711 42.2513V43.6521L13.258 43.4949V42.2513H13.9711ZM13.1707 10.8344V6.93231H13.8838V10.8344H13.1707ZM15.9503 42.2513V45.1386L15.2372 44.5097V42.2513H15.9503ZM15.2372 10.8344V7.24676L15.9503 7.48975V10.8344H15.2372ZM18.0896 42.2513V46.3821L17.3765 45.7532V42.2513H18.0896ZM17.3765 4.83118H18.0896V10.8344H17.3765V4.83118ZM19.5304 10.8344V8.2616L20.2435 8.73328V10.8344H19.5304ZM22.2955 42.3228V44.8956L21.5824 45.1386V42.3228H22.2955ZM21.5824 8.89051H22.2955V10.8344H21.5824V8.89051ZM24.4494 42.3228V44.8956L23.7363 44.7384V42.3228H24.4494ZM23.7363 8.57605L24.4494 7.94714V10.8344H23.7363V8.57605ZM26.5887 42.3228V47.3112L25.8756 46.2249V42.3228H26.5887ZM25.8756 7.08954L26.5887 7.24676V10.8344H25.8756V7.08954ZM20.2435 42.2513V48.0974L19.5304 47.7114V42.2513H20.2435ZM30.1543 19.4105H30.8674V35.7764L30.1543 35.462V19.4105Z"/>
<path d="M3.78384 2.07255H0V3.40183H0.160085C0.189192 3.10167 0.276511 2.85868 0.422043 2.67287C0.567575 2.47276 0.756767 2.387 0.989619 2.387H1.28068C1.368 2.387 1.42622 2.42988 1.45532 2.50135C1.49898 2.58711 1.52809 2.65858 1.52809 2.74434V5.46009C1.52809 5.60302 1.46987 5.71737 1.368 5.81742C1.26613 5.91748 1.1497 5.97465 0.989619 5.97465V6.13188H2.77966V5.97465C2.63413 5.97465 2.51771 5.91748 2.41583 5.81742C2.31396 5.71737 2.25575 5.60302 2.25575 5.46009V2.74434C2.25575 2.65858 2.2703 2.58711 2.31396 2.50135C2.35762 2.42988 2.41583 2.387 2.50315 2.387H2.77966C3.02707 2.387 3.21626 2.47276 3.36179 2.67287C3.50732 2.85868 3.59464 3.10167 3.62375 3.40183H3.78384V2.07255ZM9.53236 5.97465C9.40138 5.97465 9.2704 5.91748 9.16853 5.81742C9.06665 5.71737 9.00844 5.60302 9.00844 5.46009V2.74434C9.00844 2.6014 9.06665 2.47276 9.16853 2.37271C9.2704 2.28695 9.38682 2.22977 9.53236 2.22977V2.07255H7.74231V2.22977C7.88784 2.22977 8.01882 2.28695 8.12069 2.37271C8.22257 2.47276 8.28078 2.6014 8.28078 2.74434V2.8301L6.53439 4.88835H6.50529V2.74434C6.50529 2.6014 6.5635 2.47276 6.66537 2.37271C6.76725 2.28695 6.88367 2.22977 7.0292 2.22977V2.07255H5.25371V2.22977C5.39924 2.22977 5.51567 2.28695 5.61754 2.37271C5.71941 2.47276 5.77763 2.6014 5.77763 2.74434V5.46009C5.77763 5.60302 5.71941 5.71737 5.61754 5.81742C5.51567 5.91748 5.39924 5.97465 5.25371 5.97465V6.13188H7.0292V5.97465C6.89822 5.97465 6.76725 5.91748 6.66537 5.81742C6.5635 5.71737 6.50529 5.60302 6.50529 5.46009V5.37433L8.25167 3.30178H8.28078V5.46009C8.28078 5.58873 8.22257 5.71737 8.12069 5.81742C8.01882 5.91748 7.88784 5.97465 7.74231 5.97465V6.13188H9.53236V5.97465ZM15.4264 5.97465C15.2663 5.97465 15.1499 5.91748 15.048 5.81742C14.9462 5.71737 14.9025 5.60302 14.9025 5.46009V2.74434C14.9025 2.6014 14.9462 2.47276 15.048 2.37271C15.1499 2.28695 15.2663 2.22977 15.4264 2.22977V2.07255H11.2787V2.22977C11.4243 2.22977 11.5553 2.28695 11.6571 2.37271C11.759 2.47276 11.8027 2.6014 11.8027 2.74434V5.46009C11.8027 5.60302 11.759 5.71737 11.6571 5.81742C11.5553 5.91748 11.4243 5.97465 11.2787 5.97465V6.13188H13.0688V5.97465C12.9233 5.97465 12.7923 5.91748 12.6904 5.81742C12.5885 5.71737 12.5449 5.60302 12.5449 5.46009V2.74434C12.5449 2.6014 12.574 2.51564 12.6467 2.45847C12.7195 2.41559 12.8359 2.387 12.9815 2.387H13.7091C13.8692 2.387 13.9856 2.41559 14.0584 2.45847C14.1312 2.51564 14.1603 2.6014 14.1603 2.74434V5.46009C14.1603 5.58873 14.1166 5.71737 14.0002 5.81742C13.8983 5.91748 13.7819 5.97465 13.6218 5.97465V6.13188H15.4264V5.97465ZM20.0398 4.10221C20.0398 5.28857 19.7051 5.88889 19.0211 5.88889C18.3516 5.88889 18.0169 5.28857 18.0169 4.10221C18.0169 2.90156 18.3516 2.30124 19.0211 2.30124C19.7051 2.30124 20.0398 2.90156 20.0398 4.10221ZM20.8111 4.10221C20.8111 3.44471 20.651 2.93015 20.3599 2.54423C20.0689 2.1726 19.6177 1.98679 19.0211 1.98679C18.73 1.98679 18.468 2.04396 18.2352 2.1726C18.0023 2.30124 17.8131 2.45847 17.6822 2.65858C17.5366 2.87298 17.4348 3.08738 17.362 3.33037C17.2892 3.58765 17.2456 3.83064 17.2456 4.10221C17.2456 4.75971 17.3911 5.27427 17.6967 5.6459C17.9878 6.01753 18.4389 6.20334 19.0211 6.20334C19.6032 6.20334 20.0398 6.00324 20.3454 5.57443C20.651 5.15992 20.8111 4.67395 20.8111 4.10221ZM25.6864 2.07255H22.6303V2.22977C22.7758 2.22977 22.9068 2.28695 23.0086 2.37271C23.1105 2.47276 23.1542 2.6014 23.1542 2.74434V5.46009C23.1542 5.60302 23.1105 5.71737 23.0086 5.81742C22.9068 5.91748 22.7758 5.97465 22.6303 5.97465V6.13188H24.4203V5.97465C24.2748 5.97465 24.1583 5.91748 24.0419 5.81742C23.94 5.71737 23.8964 5.60302 23.8964 5.46009V2.74434C23.8964 2.65858 23.9109 2.58711 23.9546 2.50135C23.9983 2.42988 24.0565 2.387 24.1292 2.387H24.6823C24.9151 2.387 25.1189 2.47276 25.2498 2.67287C25.3954 2.85868 25.4827 3.10167 25.5118 3.40183H25.6864V2.07255ZM30.4308 4.10221C30.4308 4.65965 30.358 5.10275 30.1979 5.41721C30.0378 5.73166 29.805 5.88889 29.4848 5.88889C29.2083 5.88889 28.9609 5.74595 28.7426 5.46009C28.5098 5.17422 28.4079 4.70253 28.4079 4.03074C28.4079 3.54477 28.5098 3.13026 28.728 2.80151C28.9463 2.47276 29.2229 2.30124 29.5721 2.30124C30.1397 2.30124 30.4308 2.90156 30.4308 4.10221ZM31.2021 3.98786C31.2021 3.41613 31.0857 2.93015 30.8383 2.55852C30.5909 2.1726 30.2125 1.98679 29.7177 1.98679C29.1355 1.98679 28.7135 2.24407 28.437 2.74434H28.4079V2.07255H27.1417V2.21548C27.2873 2.21548 27.4183 2.27265 27.5201 2.37271C27.622 2.47276 27.6657 2.6014 27.6657 2.74434V7.3754C27.6657 7.51834 27.622 7.64698 27.5201 7.74703C27.4183 7.84709 27.2873 7.88997 27.1417 7.88997V8.06149H28.9318V7.88997C28.7863 7.88997 28.6698 7.84709 28.5534 7.74703C28.4515 7.64698 28.4079 7.51834 28.4079 7.3754V5.57443H28.437C28.5243 5.74595 28.6844 5.90318 28.8736 6.03182C29.0773 6.16046 29.3102 6.21764 29.5576 6.21764C30.0087 6.21764 30.4017 6.03182 30.7218 5.6459C31.042 5.27427 31.2021 4.71683 31.2021 3.98786ZM35.4225 4.93123C35.4225 5.11704 35.3061 5.31715 35.0732 5.51726C34.8404 5.71737 34.6075 5.81742 34.3601 5.81742C34.1855 5.81742 34.0254 5.76025 33.909 5.6459C33.778 5.51726 33.7198 5.36003 33.7198 5.14563C33.7198 4.45955 34.2874 4.03074 35.4225 3.87352V4.93123ZM36.7614 5.67449C36.7614 5.6459 36.7469 5.63161 36.7178 5.61731C36.7032 5.60302 36.6741 5.61731 36.6595 5.6459C36.5722 5.74595 36.4704 5.78883 36.3685 5.78883C36.223 5.78883 36.1502 5.66019 36.1502 5.38862V3.11597C36.1502 2.74434 36.0047 2.45847 35.699 2.27265C35.3934 2.07255 35.0296 1.98679 34.593 1.98679C34.2292 1.98679 33.909 2.07255 33.6034 2.25836C33.2978 2.44417 33.1522 2.67287 33.1522 2.95874C33.1522 3.07309 33.1813 3.17314 33.2541 3.27319C33.3269 3.35895 33.4287 3.41613 33.5597 3.41613C33.6907 3.41613 33.7926 3.35895 33.8653 3.2589C33.9381 3.15885 33.9672 3.0445 33.9381 2.91586C33.9235 2.87298 33.9235 2.84439 33.909 2.80151C33.8944 2.77292 33.8799 2.74434 33.8653 2.71575C33.8653 2.68716 33.8508 2.65858 33.8508 2.6157C33.8508 2.40129 34.0982 2.28695 34.5784 2.28695C34.8258 2.28695 35.0296 2.35841 35.1897 2.48705C35.3498 2.6157 35.4225 2.8301 35.4225 3.10167V3.61624C35.146 3.67341 34.8986 3.71629 34.6949 3.75917C34.4911 3.80205 34.2583 3.85922 34.0254 3.93069C33.7926 4.01645 33.6034 4.10221 33.4578 4.21656C33.3123 4.31661 33.1959 4.44525 33.094 4.60248C32.9921 4.774 32.9485 4.95982 32.9485 5.15992C32.9485 5.50297 33.0649 5.76025 33.2832 5.93177C33.5015 6.11758 33.7489 6.20334 34.0545 6.20334C34.2437 6.20334 34.4184 6.17476 34.593 6.10329C34.7676 6.01753 34.8986 5.94606 35.0005 5.8603C35.1024 5.78883 35.2333 5.67449 35.3934 5.53155H35.4225C35.4516 5.98894 35.6117 6.21764 35.9028 6.21764C36.0338 6.21764 36.1793 6.17476 36.3103 6.10329C36.4413 6.04612 36.5431 5.97465 36.6013 5.91748C36.6595 5.84601 36.7032 5.78883 36.7469 5.74595C36.7469 5.73166 36.7614 5.70307 36.7614 5.67449ZM40.7781 4.75971C40.7781 4.9884 40.7053 5.23139 40.5598 5.50297C40.4143 5.76025 40.2251 5.88889 39.9922 5.88889C39.7157 5.88889 39.512 5.71737 39.381 5.37433C39.25 5.04558 39.1918 4.61677 39.1918 4.10221C39.1918 2.95874 39.4247 2.387 39.9195 2.387C40.1523 2.387 40.3561 2.48705 40.5307 2.70146C40.7053 2.90156 40.7781 3.13026 40.7781 3.38754V4.75971ZM43.0921 4.10221C43.0921 4.61677 43.0339 5.04558 42.9029 5.37433C42.7719 5.71737 42.5682 5.88889 42.2916 5.88889C42.0588 5.88889 41.8696 5.76025 41.7241 5.50297C41.5785 5.23139 41.5058 4.9884 41.5058 4.75971V3.38754C41.5058 3.13026 41.5931 2.90156 41.7677 2.70146C41.9278 2.48705 42.1316 2.387 42.379 2.387C42.8592 2.387 43.0921 2.95874 43.0921 4.10221ZM43.8634 3.94498C43.8634 3.35895 43.7615 2.88727 43.5287 2.52994C43.3104 2.1726 42.9756 1.98679 42.5245 1.98679C42.1607 1.98679 41.8405 2.15831 41.5494 2.48705H41.5203V0H40.2542V0.157228C40.4143 0.157228 40.5307 0.214401 40.6326 0.314455C40.7345 0.414509 40.7781 0.528857 40.7781 0.686084V2.48705H40.7636C40.4725 2.15831 40.1378 1.98679 39.7739 1.98679C39.3228 1.98679 38.9881 2.1726 38.7552 2.52994C38.5369 2.88727 38.4205 3.35895 38.4205 3.94498C38.4205 4.58819 38.566 5.13134 38.8571 5.56014C39.1482 5.98894 39.5265 6.20334 39.9922 6.20334C40.1523 6.20334 40.2979 6.16046 40.4434 6.0747C40.5889 5.97465 40.6908 5.88889 40.7636 5.77454H40.7781V7.3754C40.7781 7.51834 40.7345 7.64698 40.6326 7.74703C40.5307 7.84709 40.3997 7.88997 40.2542 7.88997V8.06149H42.0442V7.88997C41.8987 7.88997 41.7677 7.84709 41.6659 7.74703C41.564 7.64698 41.5203 7.51834 41.5203 7.3754V5.77454H41.5494C41.6076 5.88889 41.7095 5.97465 41.855 6.0747C42.0006 6.16046 42.1461 6.20334 42.3062 6.20334C42.7719 6.20334 43.1503 5.98894 43.4413 5.57443C43.7179 5.14563 43.8634 4.60248 43.8634 3.94498ZM49.9903 5.97465C49.8448 5.97465 49.7138 5.91748 49.6119 5.81742C49.51 5.71737 49.4518 5.60302 49.4518 5.46009V2.74434C49.4518 2.6014 49.51 2.47276 49.6119 2.37271C49.7138 2.28695 49.8302 2.22977 49.9903 2.22977V2.07255H48.1857V2.22977C48.3312 2.22977 48.4622 2.28695 48.5641 2.37271C48.666 2.47276 48.7242 2.6014 48.7242 2.74434V2.8301L46.9778 4.88835H46.9487V2.74434C46.9487 2.6014 47.0069 2.47276 47.1088 2.37271C47.2106 2.28695 47.3271 2.22977 47.4871 2.22977V2.07255H45.6971V2.22977C45.8426 2.22977 45.9736 2.28695 46.0755 2.37271C46.1628 2.47276 46.221 2.6014 46.221 2.74434V5.46009C46.221 5.60302 46.1628 5.71737 46.0755 5.81742C45.9736 5.91748 45.8426 5.97465 45.6971 5.97465V6.13188H47.4871V5.97465C47.3416 5.97465 47.2106 5.91748 47.1088 5.81742C47.0069 5.71737 46.9487 5.60302 46.9487 5.46009V5.37433L48.6951 3.30178H48.7242V5.46009C48.7242 5.58873 48.666 5.71737 48.5641 5.81742C48.4622 5.91748 48.3312 5.97465 48.1857 5.97465V6.13188H49.9903V5.97465ZM53.745 4.10221C53.5413 4.10221 53.3666 4.07362 53.2357 4.01645C53.0901 3.95928 53.0028 3.88781 52.9446 3.78776C52.8864 3.6877 52.8427 3.58765 52.8282 3.48759C52.7991 3.40183 52.7991 3.28749 52.7991 3.15885C52.7991 2.95874 52.8573 2.77292 53.0028 2.6014C53.1338 2.44417 53.2939 2.37271 53.4976 2.37271L53.9633 2.387C54.2689 2.387 54.4145 2.48705 54.4145 2.68716V4.10221H53.745ZM54.4145 4.35949V5.46009C54.4145 5.60302 54.3563 5.71737 54.2544 5.81742C54.1525 5.91748 54.0361 5.97465 53.876 5.97465V6.13188H55.666V5.97465C55.5205 5.97465 55.4041 5.91748 55.3022 5.81742C55.2003 5.71737 55.1421 5.60302 55.1421 5.46009V2.74434C55.1421 2.6014 55.2003 2.48705 55.3022 2.387C55.4041 2.28695 55.5205 2.22977 55.666 2.22977V2.07255H53.2648C52.8864 2.07255 52.5953 2.18689 52.3625 2.41559C52.1442 2.62999 52.0277 2.90156 52.0277 3.18743C52.0277 3.44471 52.1442 3.6877 52.377 3.93069C52.5953 4.15938 52.9155 4.28803 53.2939 4.31661L53.3084 4.3452C53.1629 4.40237 53.0028 4.54531 52.8136 4.75971L52.0277 5.66019C51.9113 5.77454 51.824 5.8603 51.7512 5.90318C51.6785 5.94606 51.5766 5.97465 51.4456 5.97465V6.13188H52.5953L53.7596 4.68824C53.8323 4.57389 53.9197 4.50243 53.9924 4.44525C54.0652 4.40237 54.1234 4.37379 54.1671 4.37379C54.2107 4.35949 54.298 4.35949 54.4145 4.35949Z" transform="translate(41.0691 9.87679)"/>
<path d="M11.7444 15.6513V0.857605C11.7444 0.457389 11.7008 0.400216 11.2496 0.400216H0.465703C0.0291064 0.400216 0 0.457389 0 0.857605V15.6513C0 16.0801 0.0291064 16.123 0.465703 16.123H4.04579C4.43873 16.123 4.52605 16.0801 4.52605 15.6513V4.01645H7.21839V15.6513C7.21839 16.0801 7.23295 16.123 7.6841 16.123H11.2496C11.7008 16.123 11.7444 16.0801 11.7444 15.6513ZM24.2602 0.943366C24.2893 0.829018 24.3039 0.714671 24.3039 0.643204C24.3039 0.457389 24.2166 0.400216 23.8673 0.400216H14.757C14.3204 0.400216 14.2622 0.457389 14.2622 0.857605V15.6513C14.2622 16.0801 14.3204 16.123 14.757 16.123H23.6781C24.1292 16.123 24.1438 16.0801 24.1438 15.6513V12.9927C24.1438 12.5925 24.1292 12.521 23.6781 12.521H18.8028V9.84817H22.5575C22.9504 9.84817 23.0523 9.7767 23.0523 9.39078V6.74649C23.0523 6.31769 22.9504 6.26052 22.5575 6.26052H18.8028V3.97357H23.3579C23.649 3.97357 23.8236 3.93069 23.8673 3.60194L24.2602 0.943366ZM32.9048 15.7799C32.9048 16.1087 33.1086 16.123 33.225 16.123H37.0525C37.4163 16.123 37.4309 16.0086 37.4309 15.8943V0.700378V0.62891C37.4309 0.514563 37.4163 0.400216 37.0525 0.400216H33.2541C33.094 0.400216 32.9048 0.400216 32.9048 0.757551V7.08954C32.4828 7.31823 32.0171 7.46116 31.4495 7.46116C30.7509 7.46116 29.936 7.18959 29.936 5.68878V0.700378C29.936 0.400216 29.7322 0.400216 29.6303 0.400216H25.7301C25.6137 0.400216 25.4099 0.400216 25.4099 0.757551V6.44633C25.4099 7.53263 25.4536 8.70469 26.6033 9.70523C27.6511 10.6486 29.0773 10.7915 30.0378 10.7915C31.173 10.7915 32.0462 10.6057 32.9048 10.1912V15.7799ZM53.1047 15.5798L48.2002 0.786138C48.0547 0.414509 48.0402 0.400216 47.6618 0.400216H44.1836C43.7906 0.400216 43.7615 0.443096 43.6742 0.786138L38.7843 15.5798C38.7407 15.6942 38.697 15.8085 38.697 15.8943C38.697 16.0372 38.8134 16.123 39.1918 16.123H42.8301C43.1939 16.123 43.1939 16.1087 43.3249 15.7371L44.2709 12.4639H47.3416L48.2148 15.7371C48.3167 16.1087 48.3312 16.123 48.7387 16.123H52.6826C53.0319 16.123 53.1483 16.0658 53.1483 15.8514C53.1483 15.7799 53.1192 15.6942 53.1047 15.5798ZM46.6867 9.36219H44.7948L45.3915 6.67503C45.537 6.01753 45.6971 4.80259 45.799 4.05933C45.8863 4.75971 46.09 6.03182 46.2065 6.67503L46.6867 9.36219ZM64.5726 0.943366C64.5872 0.829018 64.5872 0.743258 64.5872 0.671791C64.5872 0.457389 64.4999 0.400216 64.1506 0.400216H53.1774C52.7263 0.400216 52.6826 0.457389 52.6826 0.857605V3.71629C52.6826 4.15939 52.7263 4.20227 53.1774 4.20227H56.19V15.6513C56.19 16.0801 56.2336 16.123 56.6702 16.123H60.2503C60.6869 16.123 60.716 16.0801 60.716 15.6513V4.20227H63.5393C63.8886 4.20227 63.9614 4.1308 64.0341 3.81634L64.5726 0.943366ZM77.7433 15.6513V0.857605C77.7433 0.457389 77.6851 0.400216 77.2485 0.400216H73.6684C73.2318 0.400216 73.2027 0.457389 73.2027 0.857605V6.26052H70.1756V0.857605C70.1756 0.457389 70.0737 0.400216 69.6808 0.400216H66.1153C65.6641 0.400216 65.635 0.457389 65.635 0.857605V15.6513C65.635 16.0801 65.6641 16.123 66.1153 16.123H69.6808C70.0737 16.123 70.1756 16.0801 70.1756 15.6513V9.89105H73.2027V15.6513C73.2027 16.0801 73.2318 16.123 73.6684 16.123H77.2485C77.6851 16.123 77.7433 16.0801 77.7433 15.6513ZM93.0533 0.714671C93.0533 0.443096 92.8932 0.400216 92.6894 0.400216H88.4981C88.1925 0.400216 88.0761 0.557443 88.0178 0.714671L86.286 5.0027C85.5584 6.78937 85.2091 7.43258 84.4378 9.44795H84.3068C84.3213 9.27643 84.5105 6.54639 84.5105 5.18851V0.671791C84.5105 0.485976 84.4232 0.400216 84.234 0.400216H80.6394C80.3774 0.400216 80.261 0.457389 80.261 0.743258V15.8514C80.261 16.0372 80.3483 16.123 80.5375 16.123H84.5542C84.8307 16.123 84.9471 15.8943 85.0199 15.7656L87.0719 10.9202C88.2653 8.10437 88.6436 7.04666 88.9056 6.21764H89.022C88.9493 7.00378 88.8037 8.93339 88.8037 10.0483V15.7799C88.8037 16.0658 88.9202 16.123 89.1821 16.123H92.704C92.8932 16.123 93.0533 16.1087 93.0533 15.8514V0.714671ZM100.112 9.69094H100.897C101.814 9.69094 102.353 10.1626 102.484 11.0345L102.862 13.3929C103.313 16.2373 105.758 16.5232 107.33 16.5232C107.752 16.5232 107.796 16.3517 107.868 16.1802L108.698 13.5787C108.727 13.5359 108.727 13.5073 108.727 13.4644C108.727 13.2643 108.509 13.1928 108.378 13.1499L107.912 13.0356C107.446 12.8927 106.981 12.8212 106.748 11.6777L106.486 10.377C106.268 9.27643 105.598 8.33306 104.332 7.94714V7.87567C105.525 7.53263 106.02 6.58927 106.18 5.8746L106.442 4.73112C106.602 3.85922 106.952 3.4733 107.505 3.33037L108.116 3.17314C108.189 3.14455 108.378 3.07309 108.378 2.87298C108.378 2.8301 108.378 2.78722 108.349 2.73004L107.636 0.300162C107.563 0.100054 107.388 0 107.024 0C105.365 0 103.241 0.929072 102.789 3.28749L102.542 4.64536C102.353 5.76025 101.887 6.36057 100.854 6.36057H100.112V0.671791C100.112 0.485976 100.01 0.400216 99.8351 0.400216H95.9493C95.7019 0.400216 95.5855 0.457389 95.5855 0.743258V15.7371C95.5855 15.9657 95.6001 16.123 95.9493 16.123H99.8496C99.966 16.123 100.112 16.0658 100.112 15.8514V9.69094Z" transform="translate(41.2729 20.5111)"/>
</svg>
