<svg width="10" height="12" viewBox="0 0 10 12" xmlns="http://www.w3.org/2000/svg">
<path fill-rule="evenodd" clip-rule="evenodd" d="M2.9137 7.78027V7.54126H5.46814C6.89954 7.54126 8.01135 7.21436 8.80334 6.56055C9.60107 5.90649 10 4.9917 10 3.81592C10 2.66748 9.59265 1.74438 8.77795 1.04663C7.96887 0.348877 6.87415 0 5.49365 0H1.7666C1.21436 0 0.766602 0.447754 0.766602 1V5.86816C0.343262 5.86816 0 6.21143 0 6.63477V6.77466C0 7.198 0.343262 7.54126 0.766602 7.54126V7.78027H0.703247C0.314819 7.78027 0 8.09521 0 8.48364C0 8.87207 0.314819 9.18677 0.703247 9.18677H0.766602V10.9265C0.766602 11.5193 1.24731 12 1.84021 12C2.43311 12 2.9137 11.5193 2.9137 10.9265V9.18677H4.36597C4.75439 9.18677 5.06934 8.87207 5.06934 8.48364C5.06934 8.09521 4.75439 7.78027 4.36597 7.78027H2.9137ZM5.49365 5.86816H2.9137V1.6814H5.5531C6.26587 1.69238 6.82605 1.89282 7.2334 2.28296C7.64075 2.66748 7.84436 3.18408 7.84436 3.83252C7.84436 4.4917 7.64355 4.99731 7.24182 5.34888C6.84021 5.69507 6.25745 5.86816 5.49365 5.86816Z"/>
</svg>
