<svg width="62" height="62" viewBox="0 0 62 62" xmlns="http://www.w3.org/2000/svg">
<path fill-rule="evenodd" clip-rule="evenodd" d="M31 61C47.5685 61 61 47.5685 61 31C61 14.4315 47.5685 1 31 1C14.4315 1 1 14.4315 1 31C1 47.5685 14.4315 61 31 61ZM31 62C48.1208 62 62 48.1208 62 31C62 13.8792 48.1208 0 31 0C13.8792 0 0 13.8792 0 31C0 48.1208 13.8792 62 31 62Z"/>
<path fill-rule="evenodd" clip-rule="evenodd" d="M31 55C44.2549 55 55 44.2549 55 31C55 17.7451 44.2549 7 31 7C17.7451 7 7 17.7451 7 31C7 44.2549 17.7451 55 31 55ZM32.125 32.1249H38.875C39.4963 32.1249 40.0001 31.6212 40 31C40 30.3788 39.4963 29.875 38.875 29.875H32.125V23.125C32.125 22.5037 31.6213 22 31 22C30.3787 22 29.875 22.5037 29.875 23.125V29.875H23.1251C22.5038 29.875 22 30.3787 22 31C22 31.6213 22.5038 32.125 23.1251 32.125H29.875V38.875C29.875 39.4963 30.3787 40 31 40C31.6213 40 32.125 39.4963 32.125 38.875V32.1249Z"/>
</svg>
